<svg width="150" height="150" viewBox="0 0 150 150" fill="none" xmlns="http://www.w3.org/2000/svg">
<path d="M137.973 116.287H12.0267C6.59768 116.287 2.19641 111.886 2.19641 106.456V104.521C2.19641 99.092 6.59739 94.6908 12.0267 94.6908H137.973C143.402 94.6908 147.803 99.0917 147.803 104.521V106.456C147.803 111.886 143.402 116.287 137.973 116.287V116.287Z" fill="#E94444"/>
<path d="M137.973 77.6836H12.0267C6.59768 77.6836 2.19641 73.2826 2.19641 67.8533V65.918C2.19641 60.489 6.59739 56.0877 12.0267 56.0877H137.973C143.402 56.0877 147.803 60.4887 147.803 65.918V67.8533C147.803 73.2826 143.402 77.6836 137.973 77.6836V77.6836Z" fill="#9E5528"/>
<path d="M147.803 104.52V106.456C147.803 111.886 143.404 116.288 137.973 116.288H132.221C137.651 116.288 142.05 111.886 142.05 106.456V104.52C142.05 99.0926 137.651 94.6905 132.221 94.6905H137.973C143.404 94.6908 147.803 99.0929 147.803 104.52Z" fill="#D83131"/>
<path d="M147.803 65.9177V67.8536C147.803 73.2838 143.404 77.683 137.973 77.683H132.221C137.651 77.683 142.05 73.2838 142.05 67.8536V65.9177C142.05 60.4905 137.651 56.0883 132.221 56.0883H137.973C143.404 56.0883 147.803 60.4905 147.803 65.9177V65.9177Z" fill="#904D24"/>
<path d="M74.9999 2.41821C25.9028 3.12896 9.40717 29.7616 3.96118 45.2362C2.09526 50.5386 6.07348 56.0877 11.695 56.0877H74.9999H138.304C143.967 56.0877 147.895 50.4827 146.006 45.1439C140.527 29.6561 124 3.12749 74.9999 2.41821V2.41821Z" fill="#FE9738"/>
<path d="M138.304 56.0883H137.604C139.511 53.9619 140.296 50.8661 139.233 47.8553C133.753 32.3645 117.226 5.8377 68.2257 5.129C55.5495 5.31064 45.0436 7.22314 36.3451 10.2252C46.2094 5.69443 58.8386 2.65137 75 2.41699C124 3.12861 140.527 29.6555 146.007 45.1433C147.894 50.4823 143.966 56.0883 138.304 56.0883Z" fill="#FE860A"/>
<path d="M137.973 116.287H75H12.0266C12.0266 116.287 7.68338 137.259 32.3994 145.51C36.6334 146.924 41.0534 147.582 45.486 147.582H75H104.514C108.946 147.582 113.366 146.924 117.6 145.51C142.317 137.259 137.973 116.287 137.973 116.287Z" fill="#FE9738"/>
<path d="M117.6 145.509C113.365 146.924 108.945 147.583 104.514 147.583H97.8422C102.277 147.583 106.696 146.924 110.931 145.509C135.645 137.259 131.301 116.288 131.301 116.288H137.973C137.973 116.288 142.317 137.259 117.6 145.509V145.509Z" fill="#FE860A"/>
<path d="M138.204 98.6063C138.204 103.514 132.501 106.175 128.709 103.059C127.151 101.777 125.31 100.763 122.393 100.763C114.489 100.763 114.489 107.024 106.584 107.024C98.6798 107.024 98.6798 100.763 90.7755 100.763C82.8715 100.763 82.8715 107.024 74.9672 107.024C67.0632 107.024 67.0632 100.763 59.1592 100.763C51.2546 100.763 51.2546 107.024 43.3503 107.024C35.4463 107.024 35.4463 100.763 27.542 100.763C24.6261 100.763 22.7859 101.777 21.2279 103.057C17.436 106.173 11.7334 103.514 11.7334 98.6054V86.9904H138.204V98.6063H138.204Z" fill="#BBEC6C"/>
<path d="M138.205 86.9907V98.6066C138.205 103.199 133.211 105.823 129.465 103.589C131.12 102.622 132.309 100.85 132.309 98.6066V86.9907H138.205Z" fill="#A2E62E"/>
<path d="M11.7964 77.6836V87.0768H25.3547C28.1754 87.0768 30.4617 89.3634 30.4617 92.1838V119.237C30.4617 122.843 33.385 125.766 36.9911 125.766C40.5973 125.766 43.5205 122.843 43.5205 119.237V92.1838C43.5205 89.3631 45.8071 87.0768 48.6275 87.0768H138.203V77.6836H11.7964Z" fill="#FEE45A"/>
<path d="M132.309 77.6827H138.205V87.0756H132.309V77.6827Z" fill="#FEDF30"/>
<path d="M54.7342 25.0029C55.515 25.0029 56.2714 24.5854 56.6687 23.85L58.5741 20.3242C59.151 19.2569 58.7534 17.9242 57.6861 17.3473C56.618 16.7705 55.2858 17.1686 54.7093 18.2353L52.8038 21.7612C52.227 22.8285 52.6245 24.1615 53.6918 24.738C54.0237 24.9176 54.3812 25.0029 54.7342 25.0029Z" fill="black"/>
<path d="M77.1703 23.0467V19.0389C77.1703 17.8257 76.1869 16.8422 74.9737 16.8422C73.7605 16.8422 72.777 17.8257 72.777 19.0389V23.0467C72.777 24.2599 73.7605 25.2434 74.9737 25.2434C76.1869 25.2434 77.1703 24.2599 77.1703 23.0467Z" fill="black"/>
<path d="M95.2661 24.9733C95.6402 24.9733 96.0193 24.8775 96.3662 24.6765C97.4156 24.0677 97.773 22.7236 97.1642 21.6741L95.1536 18.2071C94.5448 17.1577 93.2006 16.8006 92.1512 17.4091C91.1018 18.0179 90.7444 19.362 91.3532 20.4114L93.3638 23.8784C93.7713 24.5807 94.5084 24.9733 95.2661 24.9733V24.9733Z" fill="black"/>
<path d="M150 67.8533V65.918C150 61.815 147.933 58.1871 144.788 56.0157C145.528 55.4177 146.196 54.7134 146.767 53.9054C148.716 51.1497 149.205 47.6004 148.077 44.4115C145.352 36.7093 139.69 25.6178 128.186 16.5164C114.923 6.02288 97.0392 0.540265 75.0316 0.221808C75.0105 0.221515 74.9892 0.221515 74.9681 0.221808C65.0215 0.365656 55.8073 1.58265 47.5816 3.8388C46.4118 4.1596 45.7233 5.36839 46.0441 6.53821C46.3649 7.70804 47.5734 8.3971 48.7436 8.07571C56.6027 5.92005 65.4363 4.75579 74.9997 4.61517C122.523 5.31536 138.589 30.7656 143.935 45.8766C144.598 47.7504 144.322 49.7523 143.179 51.3692C142.046 52.972 140.269 53.8913 138.304 53.8913H11.695C9.72246 53.8913 7.93594 52.9667 6.79424 51.3542C5.66602 49.7614 5.38887 47.797 6.0334 45.9654C9.93018 34.8923 18.8789 19.8876 39.3806 11.2896C40.4994 10.8202 41.0262 9.53323 40.5568 8.41439C40.0875 7.29525 38.7996 6.76937 37.6816 7.23812C27.699 11.4246 19.3459 17.4733 12.8549 25.2159C8.07861 30.9126 4.38926 37.4031 1.88936 44.507C0.765527 47.7009 1.24629 51.1222 3.20918 53.8934C3.78076 54.7008 4.46045 55.4092 5.21748 56.0121C2.06865 58.1833 0 61.8129 0 65.918V67.8533C0 73.6538 4.12764 78.508 9.59971 79.6339L9.55576 92.7519C4.10596 93.8948 0 98.7367 0 104.521V106.456C0 112.254 4.12324 117.106 9.59092 118.235C9.44355 120.547 9.51914 124.298 10.8521 128.473C14.4448 139.723 24.1746 145.08 31.7039 147.594C36.046 149.043 40.6831 149.778 45.4863 149.778H104.514C109.317 149.778 113.954 149.043 118.296 147.594C125.826 145.08 135.555 139.723 139.148 128.473C140.481 124.299 140.556 120.547 140.409 118.235C145.877 117.106 150 112.254 150 106.456V104.521C150 98.7211 145.872 93.871 140.4 92.7454V79.6339C145.872 78.5083 150 73.6538 150 67.8533V67.8533ZM4.39336 106.456V104.521C4.39336 101.183 6.5499 98.3449 9.54082 97.3108L9.53643 98.6054C9.53643 101.723 11.2852 104.487 14.0997 105.817C16.9307 107.155 20.1967 106.748 22.6222 104.755C23.7568 103.822 25.1382 102.959 27.5417 102.959C27.7945 102.959 28.0327 102.969 28.265 102.984V114.09H12.0267C7.81758 114.09 4.39336 110.665 4.39336 106.456ZM91.9301 89.2735H136.007V98.6063C136.007 100.029 135.241 101.24 133.96 101.846C132.661 102.459 131.22 102.278 130.104 101.361C128.52 100.06 126.213 98.5656 122.393 98.5656C117.676 98.5656 115.258 100.481 113.125 102.171C111.252 103.655 109.772 104.827 106.584 104.827C103.397 104.827 101.917 103.655 100.044 102.171C97.9104 100.481 95.4923 98.5656 90.7755 98.5656C86.0587 98.5656 83.5351 100.565 81.5071 102.171C79.6339 103.655 78.1544 104.827 74.9672 104.827C71.7797 104.827 70.3002 103.655 68.4272 102.171C66.3996 100.565 63.8757 98.5656 59.1592 98.5656C54.4424 98.5656 52.0245 100.481 49.8908 102.171C48.5555 103.229 47.4149 104.124 45.7175 104.553V92.1838C45.7175 90.5789 47.0229 89.2735 48.6278 89.2735H81.6296C82.8428 89.2735 83.8263 88.29 83.8263 87.0768C83.8263 85.8636 82.8428 84.8801 81.6296 84.8801H48.6275C44.6001 84.8801 41.3238 88.1564 41.3238 92.1838V119.237C41.3238 121.626 39.3803 123.57 36.9911 123.57C34.602 123.57 32.6584 121.626 32.6584 119.237V92.1838C32.6584 88.1564 29.3818 84.8801 25.3547 84.8801H13.9931V79.8803H136.007V84.8801H91.9301C90.7169 84.8801 89.7334 85.8636 89.7334 87.0768C89.7334 88.29 90.7169 89.2735 91.9301 89.2735V89.2735ZM25.3544 89.2735C26.9593 89.2735 28.265 90.5789 28.265 92.1838V98.584C28.0298 98.5732 27.7904 98.5656 27.5417 98.5656C23.7231 98.5656 21.416 100.059 19.8328 101.36C18.7166 102.277 17.2755 102.458 15.9765 101.844C14.6947 101.239 13.9295 100.028 13.9295 98.6051V89.2735H25.3544ZM134.963 127.136C132.529 134.758 126.453 140.239 116.905 143.426C113.012 144.726 108.843 145.385 104.514 145.385H45.4863C41.1568 145.385 36.9879 144.726 33.0952 143.426C14.3906 137.183 13.6072 123.39 13.962 118.483H28.2653V119.237C28.2653 124.048 32.1797 127.963 36.9914 127.963C41.8031 127.963 45.7175 124.049 45.7175 119.237V118.483H136.027C136.151 120.36 136.106 123.555 134.963 127.136ZM145.607 104.521V106.456C145.607 110.665 142.182 114.09 137.973 114.09H45.7172V109.037C48.9384 108.523 50.8755 106.995 52.6184 105.615C54.4916 104.131 55.9714 102.959 59.1589 102.959C62.3464 102.959 63.8259 104.131 65.6988 105.615C67.7268 107.221 70.2504 109.221 74.9669 109.221C79.6834 109.221 82.1016 107.305 84.235 105.615C86.1082 104.131 87.5877 102.959 90.7752 102.959C93.963 102.959 95.4425 104.131 97.3157 105.615C99.4491 107.305 101.867 109.221 106.584 109.221C111.301 109.221 113.719 107.305 115.852 105.615C117.726 104.131 119.205 102.959 122.393 102.959C124.797 102.959 126.179 103.823 127.314 104.756C129.739 106.749 133.005 107.157 135.836 105.819C138.651 104.489 140.4 101.725 140.4 98.6066V97.2859C143.423 98.3022 145.607 101.16 145.607 104.521V104.521ZM137.973 75.4869H12.0267C7.81758 75.4869 4.39307 72.0624 4.39307 67.8533V65.918C4.39307 61.7089 7.81758 58.2844 12.0267 58.2844H137.973C142.182 58.2844 145.607 61.7089 145.607 65.918V67.8533C145.607 72.0624 142.182 75.4869 137.973 75.4869V75.4869Z" fill="black"/>
</svg>
