<svg width="109" height="110" viewBox="0 0 109 110" fill="none" xmlns="http://www.w3.org/2000/svg">
<g clip-path="url(#clip0_101_3589)">
<path d="M1.59473 18.6776H107.405V83.7062H1.59473V18.6776Z" fill="#F9F6F9"/>
<path d="M102.732 18.6776H107.405V83.7062H102.732V18.6776Z" fill="#DDDAEC"/>
<path d="M107.406 18.6777H1.59473V10.8903C1.59473 8.79193 3.29589 7.09076 5.39424 7.09076H103.606C105.704 7.09076 107.405 8.79193 107.405 10.8903V18.6777H107.406Z" fill="#FFE07D"/>
<path d="M103.606 7.09076H98.9326C101.031 7.09076 102.732 8.79193 102.732 10.8903V18.6777H107.405V10.8903C107.406 8.79193 105.704 7.09076 103.606 7.09076Z" fill="#FFD064"/>
<path d="M102.838 102.376H6.16201C3.6397 102.376 1.59473 100.331 1.59473 97.8087V83.7063H107.405V97.8087C107.406 100.331 105.361 102.376 102.838 102.376Z" fill="#95D6A4"/>
<path d="M102.903 83.7063V97.8027C102.903 100.328 100.86 102.376 98.3416 102.376H102.844C105.364 102.376 107.406 100.328 107.406 97.8027V83.7063H102.903Z" fill="#78C2A4"/>
<path d="M54.5001 61.2472C64.0522 61.2472 71.7956 53.5038 71.7956 43.9517C71.7956 34.3997 64.0522 26.6562 54.5001 26.6562C44.9481 26.6562 37.2046 34.3997 37.2046 43.9517C37.2046 53.5038 44.9481 61.2472 54.5001 61.2472Z" fill="#FFE07D"/>
<path d="M54.5001 26.6562C53.5554 26.6562 52.6293 26.7349 51.7258 26.8805C59.9585 28.2083 66.2469 35.3445 66.2469 43.9517C66.2469 52.559 59.9585 59.6949 51.7258 61.0227C52.6295 61.1686 53.5554 61.247 54.5001 61.247C64.0522 61.247 71.7956 53.5037 71.7956 43.9515C71.7956 34.3996 64.0522 26.6562 54.5001 26.6562Z" fill="#FFD064"/>
<path d="M54.5002 54.9829C58.964 54.9829 62.5826 51.3643 62.5826 46.9003H46.4177C46.4177 51.3643 50.0365 54.9829 54.5002 54.9829Z" fill="#DD636E"/>
<path d="M37.1894 70.3599H71.811C72.6919 70.3599 73.4057 69.6461 73.4057 68.7653C73.4057 67.8844 72.6919 67.1706 71.811 67.1706H37.1894C36.3085 67.1706 35.5947 67.8844 35.5947 68.7653C35.5947 69.6461 36.3087 70.3599 37.1894 70.3599Z" fill="black"/>
<path d="M83.1678 74.3193H25.8324C24.9516 74.3193 24.2378 75.0331 24.2378 75.914C24.2378 76.7948 24.9516 77.5086 25.8324 77.5086H83.1678C84.0487 77.5086 84.7625 76.7948 84.7625 75.914C84.7625 75.0331 84.0487 74.3193 83.1678 74.3193Z" fill="black"/>
<path d="M9.99137 11.2895C9.11049 11.2895 8.39673 12.0033 8.39673 12.8842C8.39673 13.765 9.11049 14.4788 9.99137 14.4788H12.2513C13.1322 14.4788 13.846 13.765 13.846 12.8842C13.846 12.0033 13.1322 11.2895 12.2513 11.2895H9.99137Z" fill="black"/>
<path d="M18.934 11.2895C18.0531 11.2895 17.3394 12.0033 17.3394 12.8842C17.3394 13.765 18.0531 14.4788 18.934 14.4788H21.1939C22.0748 14.4788 22.7886 13.765 22.7886 12.8842C22.7886 12.0033 22.0748 11.2895 21.1939 11.2895H18.934Z" fill="black"/>
<path d="M27.8764 11.2895C26.9955 11.2895 26.2817 12.0033 26.2817 12.8842C26.2817 13.765 26.9955 14.4788 27.8764 14.4788H30.1363C31.0172 14.4788 31.731 13.765 31.731 12.8842C31.731 12.0033 31.0172 11.2895 30.1363 11.2895H27.8764Z" fill="black"/>
<path d="M103.606 5.49609H80.9406C80.0597 5.49609 79.346 6.20986 79.346 7.09074C79.346 7.97162 80.0597 8.68539 80.9406 8.68539H103.606C104.822 8.68539 105.811 9.67449 105.811 10.8903V17.083H3.18929V10.8905C3.18929 9.67471 4.1784 8.6856 5.39416 8.6856H74.5565C75.4374 8.6856 76.1511 7.97183 76.1511 7.09095C76.1511 6.21007 75.4374 5.49631 74.5565 5.49631H5.39416C2.41982 5.49609 0 7.91592 0 10.8905V97.8029C0 101.204 2.7615 103.971 6.15597 103.971H63.3429C64.2238 103.971 64.9376 103.257 64.9376 102.376C64.9376 101.495 64.2238 100.782 63.3429 100.782H6.15597C4.52029 100.782 3.18929 99.4454 3.18929 97.8029V85.3011H105.811V97.8029C105.811 99.4454 104.48 100.782 102.844 100.782H69.7103C68.8294 100.782 68.1156 101.495 68.1156 102.376C68.1156 103.257 68.8294 103.971 69.7103 103.971H102.844C106.238 103.971 109 101.204 109 97.8029V10.8905C109 7.91592 106.58 5.49609 103.606 5.49609ZM3.18929 82.1116V20.2725H105.811V82.1118H3.18929V82.1116Z" fill="black"/>
<path d="M58.4195 88.675L53.0506 94.0438L50.6993 91.7739C50.0659 91.1622 49.0562 91.18 48.4447 91.8136C47.8332 92.4472 47.8506 93.4568 48.4844 94.0683L51.9629 97.4266C52.272 97.7251 52.6713 97.8739 53.0704 97.8739C53.4789 97.8739 53.8869 97.7181 54.1982 97.4068L60.675 90.9298C61.2977 90.307 61.2977 89.2975 60.675 88.6747C60.0518 88.0524 59.0423 88.0522 58.4195 88.675Z" fill="black"/>
<path d="M50.4744 39.3003V37.2145C50.4744 36.3336 49.7607 35.6198 48.8798 35.6198C47.9989 35.6198 47.2852 36.3336 47.2852 37.2145V39.3003C47.2852 40.1811 47.9989 40.8949 48.8798 40.8949C49.7607 40.8949 50.4744 40.1809 50.4744 39.3003Z" fill="black"/>
<path d="M61.7149 39.3003V37.2145C61.7149 36.3336 61.0012 35.6198 60.1203 35.6198C59.2394 35.6198 58.5256 36.3336 58.5256 37.2145V39.3003C58.5256 40.1811 59.2394 40.8949 60.1203 40.8949C61.0012 40.8949 61.7149 40.1809 61.7149 39.3003Z" fill="black"/>
<path d="M44.823 46.9003C44.823 52.2364 49.1641 56.5777 54.5002 56.5777C59.8363 56.5777 64.1773 52.2364 64.1773 46.9003C64.1773 46.0194 63.4636 45.3057 62.5827 45.3057H46.4179C45.537 45.3057 44.823 46.0194 44.823 46.9003ZM60.7897 48.495C60.0774 51.3041 57.5274 53.3882 54.5002 53.3882C51.4729 53.3882 48.9232 51.3039 48.2107 48.4948H60.7897V48.495Z" fill="black"/>
<path d="M40.8084 54.632C41.5492 54.1558 41.7637 53.169 41.2875 52.4284C39.6599 49.8968 38.7994 46.9656 38.7994 43.9517C38.7994 35.2943 45.8428 28.2508 54.5003 28.2508C63.1577 28.2508 70.2012 35.2943 70.2012 43.9517C70.2012 52.6092 63.1577 59.6526 54.5003 59.6526C51.1581 59.6526 47.9658 58.6135 45.2677 56.6481C44.5565 56.1293 43.5585 56.2858 43.0399 56.9981C42.5213 57.7099 42.6778 58.7073 43.3899 59.2259C46.6368 61.5917 50.4788 62.8421 54.5003 62.8421C64.9163 62.8421 73.3904 54.3682 73.3904 43.9519C73.3904 33.5357 64.9165 25.0618 54.5003 25.0618C44.0841 25.0618 35.6101 33.5357 35.6101 43.9519C35.6101 47.5788 36.6456 51.1062 38.6049 54.1532C39.0811 54.8938 40.0675 55.1081 40.8084 54.632Z" fill="black"/>
</g>
<defs>
<clipPath id="clip0_101_3589">
<rect width="109" height="109" fill="white" transform="translate(0 0.233337)"/>
</clipPath>
</defs>
</svg>
