<svg width="150" height="150" viewBox="0 0 150 150" fill="none" xmlns="http://www.w3.org/2000/svg">
<g clip-path="url(#clip0_12_2847)">
<path fill-rule="evenodd" clip-rule="evenodd" d="M110.839 67.1127H147.803V79.9535C147.803 83.1284 145.212 85.7215 142.039 85.7215H128.744L120.813 89.7275L110.839 85.7215V67.1127Z" fill="#FFE07D"/>
<path fill-rule="evenodd" clip-rule="evenodd" d="M110.839 85.7215H128.744V93.958C128.744 95.9361 127.124 97.5483 125.156 97.5483H66.8604C66.8604 92.3704 66.8604 89.7358 70.8216 89.7358L78.711 89.7275C83.6771 89.7193 86.9326 88.4476 88.7513 85.7215H110.839Z" fill="#6F6571"/>
<path fill-rule="evenodd" clip-rule="evenodd" d="M73.8916 97.5483H125.156C128.162 102.785 130.579 109.076 128.495 121.111C125.006 109.242 89.5792 113.979 85.9417 127.677H46.8518C45.3735 124.327 43.9784 121.019 42.7576 117.678H53.7779C76.0672 109.267 68.9003 113.016 73.8916 97.5483Z" fill="#FFE07D"/>
<path fill-rule="evenodd" clip-rule="evenodd" d="M70.7276 65.3757C71.4917 69.3984 72.5297 73.3629 73.6925 76.7373L84.9612 81.1523L97.5267 76.737C97.0866 52.9585 88.2006 41.5553 80.6435 37.8653C77.9194 35.7911 75.1292 35.0101 75.1292 35.0101C75.1292 35.0101 71.4586 40.8823 71.2676 40.8823C69.8558 44.24 69.3243 48.6202 69.4157 53.3493L70.7276 65.3757Z" fill="#ECEAEC"/>
<path fill-rule="evenodd" clip-rule="evenodd" d="M97.5266 76.737H73.6925C68.2031 77.3355 61.4514 81.5159 61.4514 94.4648V108.037H73.8917V97.5483C73.8917 92.3704 73.8917 89.7357 77.8529 89.7357L85.7423 89.7275C90.7084 89.7193 93.9639 88.4476 95.7826 85.7215C97.1859 83.6188 97.7259 80.6516 97.5266 76.737Z" fill="#FF8086"/>
<path fill-rule="evenodd" clip-rule="evenodd" d="M97.5267 76.737C97.0866 52.9585 88.2006 41.5553 80.6435 37.8653C79.5223 38.6549 78.2766 39.3032 76.9064 39.7852C83.5998 44.8468 90.31 56.1583 90.692 76.737H97.5267Z" fill="#DAD8DB"/>
<path fill-rule="evenodd" clip-rule="evenodd" d="M97.5267 76.737H90.692C90.8912 80.6516 90.3516 83.6188 88.948 85.7215C87.8019 87.4418 86.0745 88.8964 83.7076 89.7275H85.7423C90.7084 89.7193 93.9639 88.4476 95.7826 85.7215C97.186 83.6188 97.7259 80.6516 97.5267 76.737Z" fill="#F76672"/>
<path fill-rule="evenodd" clip-rule="evenodd" d="M116.602 48.4787H142.039C145.211 48.4787 147.802 51.0718 147.802 54.2467V63.7881H110.839V54.2467C110.839 51.0718 113.43 48.4787 116.602 48.4787Z" fill="#FFE07D"/>
<path fill-rule="evenodd" clip-rule="evenodd" d="M110.839 60.9123H147.803V69.98H110.839V60.9123Z" fill="#FF8086"/>
<path fill-rule="evenodd" clip-rule="evenodd" d="M140.088 60.9123H144.821H147.803V54.2467C147.803 52.0775 146.59 50.1826 144.821 49.2018C143.991 48.7447 143.044 48.4787 142.039 48.4787H134.324C137.497 48.4787 140.088 51.0718 140.088 54.2467V60.9123Z" fill="#FFC269"/>
<path fill-rule="evenodd" clip-rule="evenodd" d="M140.088 69.98H144.821H147.803V67.1127V63.7881V60.9123H144.821H140.088V63.7881V67.1127V69.98Z" fill="#F76672"/>
<path fill-rule="evenodd" clip-rule="evenodd" d="M140.088 69.98V79.9535C140.088 83.1284 137.497 85.7215 134.324 85.7215H142.039C143.044 85.7215 143.991 85.464 144.821 85.0066C146.59 84.0176 147.803 82.1227 147.803 79.9535V69.98H144.821H140.088Z" fill="#FFC269"/>
<path fill-rule="evenodd" clip-rule="evenodd" d="M85.9415 127.677C85.9415 115.385 95.6827 105.594 107.7 105.594C117.474 105.594 125.746 112.077 128.495 121.111C129.06 122.964 129.391 124.934 129.45 126.979C129.475 127.777 128.926 127.677 128.179 127.677C114.103 127.677 100.018 127.668 85.9415 127.677Z" fill="#FF8086"/>
<path fill-rule="evenodd" clip-rule="evenodd" d="M91.4144 127.677H124.533C124.06 136.603 116.827 143.701 107.974 143.701C99.121 143.701 91.8876 136.603 91.4144 127.677Z" fill="#6F6571"/>
<path fill-rule="evenodd" clip-rule="evenodd" d="M7.31339 124.145L35.8067 130.702C33.9961 138.573 26.1483 143.493 18.2839 141.681C10.4109 139.869 5.50313 132.015 7.31339 124.145Z" fill="#6F6571"/>
<path fill-rule="evenodd" clip-rule="evenodd" d="M5.17908 116.157C9.20681 110.298 16.1994 106.899 23.5075 107.63C36.3964 110.356 40.5902 118.061 41.429 127.668C41.4123 128.973 41.2711 130.286 40.9889 131.6C40.906 131.965 40.6649 131.816 40.2665 131.725L35.8069 130.702L7.31365 124.145L5.17937 123.654L2.19812 122.965C2.77087 120.454 3.80066 118.16 5.17908 116.157Z" fill="#ECEAEC"/>
<path fill-rule="evenodd" clip-rule="evenodd" d="M23.4826 107.597L34.9928 67.7693L40.1748 65.4504L45.9715 67.7693C38.356 88.88 40.4821 103.616 45.6226 117.679C46.8516 121.02 48.2467 124.327 49.7168 127.677H41.4372L23.4826 107.597Z" fill="#FF8086"/>
<path fill-rule="evenodd" clip-rule="evenodd" d="M59.1261 23.1129L72.6293 20.2371C73.9995 20.3619 77.9195 23.6531 77.9195 25.7142L75.046 40.3254C73.8501 40.6828 72.5795 40.8823 71.2673 40.8823C64.0755 40.8823 58.2457 35.0397 58.2457 27.842C58.2457 26.1712 58.5531 24.5754 59.1261 23.1129Z" fill="#FFECE4"/>
<path fill-rule="evenodd" clip-rule="evenodd" d="M54.7661 23.1129C54.7661 13.8208 62.124 6.29913 71.2093 6.29913C80.2945 6.29913 87.6524 13.8208 87.6524 23.1129C87.6524 29.2465 85.161 34.6989 80.6435 37.8653C79.0324 39.0041 77.1554 39.8435 75.0463 40.3254V25.7142C75.0463 23.6528 73.9998 23.2374 72.6296 23.1126H59.1264H54.7661V23.1129Z" fill="#FF8086"/>
<path fill-rule="evenodd" clip-rule="evenodd" d="M62.6057 8.78409C65.1053 7.20499 68.0534 6.29913 71.2093 6.29913C80.2945 6.29913 87.6524 13.8208 87.6524 23.1129C87.6524 29.2465 85.161 34.6989 80.6434 37.8653C79.4974 38.6716 78.2267 39.3281 76.8316 39.8101C80.17 36.4274 81.9806 31.5735 81.9806 26.221C81.9806 16.5135 74.2822 8.64259 64.79 8.64259C64.0506 8.64288 63.3199 8.68448 62.6057 8.78409Z" fill="#F76672"/>
<path fill-rule="evenodd" clip-rule="evenodd" d="M61.4513 108.037H73.8917V115.875C73.8917 117.554 72.9782 117.678 71.6329 117.678H53.7779C53.4208 109.816 58.1792 108.037 61.4513 108.037Z" fill="#6F6571"/>
<path fill-rule="evenodd" clip-rule="evenodd" d="M45.6225 117.679C40.4821 103.616 38.356 88.88 45.9714 67.7692H41.7029C41.6862 67.7692 41.6698 67.7692 41.6531 67.7692H40.1168C32.5013 88.88 34.6192 103.616 39.7678 117.679C40.9886 121.02 42.3837 124.327 43.8621 127.677H46.8518H49.717C48.2469 124.327 46.8518 121.02 45.6225 117.679Z" fill="#F76672"/>
<path fill-rule="evenodd" clip-rule="evenodd" d="M41.4287 127.668L23.5072 107.63C21.6554 107.447 19.8199 107.522 18.051 107.846L35.2749 127.103C35.2582 128.225 35.1504 129.364 34.9345 130.503L35.8063 130.702L40.2659 131.724C40.6646 131.816 40.9055 131.965 40.9884 131.6C41.2711 130.286 41.4123 128.973 41.4287 127.668Z" fill="#DAD8DB"/>
<path fill-rule="evenodd" clip-rule="evenodd" d="M125.156 97.5483H73.8917V102.061H116.013C119.442 102.061 121.07 103.541 122.407 106.541C123.562 109.143 123.586 109.99 124.11 113.132C126.078 115.417 127.589 118.127 128.495 121.111C130.579 109.076 128.162 102.785 125.156 97.5483Z" fill="#FFC269"/>
<path fill-rule="evenodd" clip-rule="evenodd" d="M124.11 113.132C120.124 108.503 114.252 105.594 107.7 105.594C106.055 105.594 104.461 105.777 102.925 106.117C112.732 108.337 119.592 116.997 119.891 126.979C119.908 127.527 119.658 127.652 119.26 127.677H124.533H128.179C128.926 127.677 129.475 127.777 129.45 126.979C129.392 124.934 129.059 122.965 128.495 121.111C128.478 121.053 128.461 121.003 128.445 120.953C128.445 120.953 128.445 120.953 128.445 120.945C127.531 118.027 126.044 115.376 124.11 113.132Z" fill="#F76672"/>
<path fill-rule="evenodd" clip-rule="evenodd" d="M34.9345 130.503L7.31338 124.145C7.00605 125.45 6.89824 126.763 6.94804 128.043L28.8724 133.087L29.736 133.287C28.9222 136.861 26.8544 139.828 24.1055 141.831C29.7111 140.842 34.4531 136.603 35.8066 130.702L34.9345 130.503Z" fill="#5D5360"/>
<path fill-rule="evenodd" clip-rule="evenodd" d="M119.26 127.677H91.4142C91.5056 129.422 91.8627 131.101 92.4358 132.672H111.835H117.109C116.901 136.578 115.406 140.127 113.048 142.895C119.451 140.792 124.16 134.816 124.533 127.677H119.26Z" fill="#5D5360"/>
<path fill-rule="evenodd" clip-rule="evenodd" d="M128.744 93.958V85.7215H117.491V93.958C117.491 95.9361 115.871 97.5483 113.903 97.5483H125.156C127.124 97.5483 128.744 95.9361 128.744 93.958Z" fill="#5D5360"/>
<path fill-rule="evenodd" clip-rule="evenodd" d="M58.3122 26.4457H69.4072C70.7774 26.5705 71.8239 26.9942 71.8239 29.0555V40.8659C72.9366 40.8161 74.0162 40.6333 75.046 40.3257V25.7142C75.046 23.6528 73.9995 23.2374 72.6293 23.1126H59.1261C58.7191 24.16 58.4367 25.282 58.3122 26.4457Z" fill="#FFDDCE"/>
<path fill-rule="evenodd" clip-rule="evenodd" d="M32.5928 55.2275L48.1307 60.3639C48.8947 61.0453 48.031 67.9936 47.516 67.7692H34.9928H29.4536V56.3329C29.4536 54.0806 30.6246 54.5792 32.5928 55.2275Z" fill="#FFE07D"/>
<path fill-rule="evenodd" clip-rule="evenodd" d="M55.3723 67.7692H54.0686H47.5163C43.2976 67.7692 43.1731 60.7711 48.131 60.3639L55.3726 59.782L57.3158 63.8962L55.3723 67.7692Z" fill="#FFECE4"/>
<path fill-rule="evenodd" clip-rule="evenodd" d="M69.4154 53.349L72.0146 51.1134C78.5256 45.5033 86.7553 54.9697 78.0521 60.6214L70.7273 65.3754L67.04 67.769H55.3719V59.7817L62.6217 59.1917L69.4154 53.349Z" fill="#FF8086"/>
<path fill-rule="evenodd" clip-rule="evenodd" d="M55.3723 67.7692V63.8962H53.8193H52.9805H51.6683H45.1161C44.867 63.8962 44.6344 63.8795 44.4103 63.8297C44.1695 65.758 45.2573 67.7692 47.5163 67.7692H54.0686H55.3723Z" fill="#FFDDCE"/>
<path fill-rule="evenodd" clip-rule="evenodd" d="M78.0522 60.6214C83.3174 57.1972 82.3872 52.3848 79.3893 50.3569C79.6301 52.4347 78.6419 54.82 75.6522 56.7565L69.9469 60.455L68.3358 61.5105L64.6485 63.8959H55.3723V67.7689H67.0403L70.7276 65.3754L78.0522 60.6214Z" fill="#F76672"/>
<path fill-rule="evenodd" clip-rule="evenodd" d="M48.1306 60.3639L41.8772 58.3026C39.7845 60.5467 38.7712 64.9184 40.1168 67.769H45.9715H47.516C45.2572 67.769 44.1691 65.7577 44.4099 63.8294C44.6262 62.1592 45.8303 60.5549 48.1306 60.3639Z" fill="#FFC269"/>
<path d="M142.039 46.2814H116.602C112.213 46.2814 108.641 49.8545 108.641 54.2467V83.5242H99.1269C99.6557 81.6021 99.8517 79.3348 99.723 76.6963V76.696C99.5165 65.5459 97.4933 56.1486 93.709 48.7652C90.7705 43.0327 87.3413 39.5959 84.3987 37.5413C87.8525 33.9902 89.8494 28.9386 89.8494 23.1123C89.8494 12.6296 81.4872 4.10156 71.209 4.10156C60.9308 4.10156 52.5686 12.6296 52.5686 23.1123C52.5686 24.3261 53.5523 25.3096 54.7658 25.3096H56.2588C56.1214 26.1387 56.0481 26.9836 56.0481 27.8417C56.0481 35.2292 61.3269 41.4035 68.306 42.7872C67.5744 45.5036 67.2108 48.7066 67.2123 52.3453L61.732 57.0589L48.3976 58.1373L33.0158 53.0525C31.6061 52.5838 30.0082 52.0541 28.6219 53.0537C27.2558 54.0396 27.2558 55.7654 27.2558 56.3323V67.7684C27.2558 68.9821 28.2396 69.9656 29.453 69.9656H32.0689L28.0567 83.8301C27.7195 84.9955 28.391 86.2143 29.5567 86.5515C30.723 86.8904 31.9409 86.2172 32.2784 85.0518L36.6442 69.9656H42.8909C35.1214 93.6586 39.5546 109.474 46.3688 125.479H42.4189L25.9679 107.084L29.4466 95.0669C29.7841 93.9012 29.1126 92.6827 27.9469 92.3455C26.7812 92.0083 25.5627 92.6798 25.2252 93.8452L21.898 105.34C11.6071 105.169 2.40205 112.264 0.0562533 122.472C-0.215329 123.654 0.522659 124.833 1.70479 125.105L4.82403 125.823C4.02715 134.1 9.47783 141.909 17.7905 143.822C19.0529 144.113 20.3262 144.257 21.5906 144.257C24.709 144.257 27.7726 143.382 30.4822 141.684C33.6624 139.691 36.0319 136.762 37.3143 133.299L39.7755 133.866C40.5088 134.035 41.2043 134.121 41.8992 133.747C42.5458 133.399 42.9756 132.771 43.1367 132.061C43.2914 131.342 43.4092 130.611 43.4909 129.873H89.4454C90.9149 139.01 98.6889 145.898 107.973 145.898C117.258 145.898 125.032 139.01 126.502 129.873H128.179L128.372 129.875C128.44 129.876 128.511 129.877 128.587 129.877C129.215 129.877 130.123 129.807 130.868 129.049C131.241 128.67 131.679 127.991 131.645 126.913C131.583 124.849 131.274 122.856 130.745 120.961C132.495 110.335 130.811 103.864 128.315 98.7993C129.893 97.7648 130.94 95.9824 130.94 93.9574V87.9185H142.038C146.428 87.9185 149.999 84.3454 149.999 79.9532V54.2464C150 49.8545 146.429 46.2814 142.039 46.2814ZM28.1487 137.961C25.3359 139.724 22.0078 140.284 18.777 139.54H18.7767C12.83 138.172 8.8626 132.719 9.15176 126.822L32.9856 132.308C31.9995 134.63 30.3311 136.593 28.1487 137.961ZM39.1433 129.211L4.96407 121.346C7.60166 114.123 14.6997 109.342 22.4584 109.753L39.2019 128.474C39.1872 128.721 39.1679 128.967 39.1433 129.211ZM72.3322 90.9217C71.6944 92.6039 71.6944 94.6778 71.6944 97.5486V105.84H63.6486V94.4648C63.6486 81.6041 70.6676 79.3122 73.8176 78.934H95.3593C95.2726 81.8528 94.614 83.9276 93.3636 85.2445C91.9063 86.7791 89.4129 87.5268 85.7402 87.5303L77.8532 87.5385C75.0407 87.5388 73.1833 88.6767 72.3322 90.9217ZM71.6944 110.234V115.481C71.6745 115.481 71.654 115.481 71.6329 115.481H56.0256C56.2011 113.854 56.7079 112.595 57.5402 111.723C58.7783 110.428 60.5221 110.234 61.4514 110.234H71.6944ZM95.2623 74.5397H75.2798C74.4773 72.0146 73.7619 69.2496 73.1736 66.4078L79.2489 62.4645C82.5653 60.3108 84.2906 57.2678 83.9824 54.1151C83.7094 51.3205 81.8095 48.8241 79.1423 47.7557C76.7065 46.7801 74.0848 47.0865 71.7677 48.5681C71.9587 46.4663 72.3144 44.5901 72.8288 42.9976C73.7654 42.9009 74.6956 42.7178 75.6091 42.4491C77.4686 42.0173 79.1868 41.3291 80.7381 40.4165C84.97 42.9448 94.2776 51.1456 95.2623 74.5397ZM57.1239 20.9153C58.1602 13.8946 64.0816 8.49639 71.209 8.49639C79.0641 8.49639 85.4549 15.0533 85.4549 23.1126C85.4549 29.6675 82.3116 34.9506 77.2433 37.2756V25.7142C77.2433 23.7123 76.4771 21.2566 72.8285 20.9244C72.7623 20.9183 72.6958 20.9153 72.6293 20.9153H57.1239ZM60.443 27.842C60.443 26.9748 60.5417 26.1278 60.7359 25.3099H72.5215C72.6571 25.3245 72.7562 25.3403 72.8271 25.3547C72.8385 25.4361 72.8484 25.5533 72.8484 25.7142V38.5685C72.3249 38.6455 71.7981 38.6845 71.2717 38.6848C71.2667 38.6848 71.2617 38.6848 71.257 38.6848C65.2934 38.6792 60.443 33.8174 60.443 27.842ZM57.5944 61.8029L62.7987 61.3819C63.2625 61.3447 63.7023 61.161 64.0553 60.8578L73.4479 52.7792L73.4493 52.7777C74.3575 51.9952 75.327 51.5938 76.2709 51.5938C76.691 51.5938 77.1062 51.6735 77.5084 51.8347C78.6694 52.2996 79.4939 53.3625 79.6093 54.542C79.7543 56.0265 78.7764 57.5312 76.8565 58.778L66.3902 65.5714H57.595V61.8029H57.5944ZM48.3085 62.5541L53.1999 62.1586V65.572H47.516C46.7792 65.572 46.5996 64.9597 46.5785 64.4461C46.5665 64.1549 46.594 62.6947 48.3085 62.5541ZM43.108 61.0371C42.4462 62.1223 42.1371 63.3917 42.1878 64.626C42.201 64.9456 42.2417 65.2535 42.2985 65.5535C42.2985 65.5597 42.295 65.5658 42.2962 65.5717H31.6509V57.23L43.1165 61.0201C43.113 61.026 43.1112 61.0315 43.108 61.0371ZM47.5283 69.9662H67.0403C67.4648 69.9662 67.8806 69.8432 68.2365 69.612L69.2312 68.9663C69.7096 71.081 70.2545 73.1388 70.8481 75.0823C66.3668 76.4051 59.2538 80.6798 59.2538 94.4645V106.061C57.7122 106.372 55.8885 107.091 54.363 108.687C52.7549 110.37 51.8364 112.65 51.6161 115.481H47.1835C42.7169 102.608 41.0183 88.9102 47.5283 69.9662ZM51.15 125.471C50.3379 123.604 49.5551 121.743 48.818 119.875H71.6326C74.5896 119.875 76.0887 118.529 76.0887 115.875V108.037V99.7456H93.4321C94.6459 99.7456 95.6294 98.7621 95.6294 97.5483C95.6294 96.3346 94.6459 95.3511 93.4321 95.3511H76.1045C76.1326 94.103 76.2126 93.0823 76.4414 92.4794C76.5524 92.1861 76.6485 91.933 77.8553 91.933L85.7443 91.9248C90.6853 91.9201 94.2199 90.7248 96.5505 88.2703C96.6583 88.1566 96.7603 88.0374 96.8625 87.9188H110.839H126.546V93.9577C126.546 94.713 125.91 95.3511 125.156 95.3511H103.282C102.068 95.3511 101.084 96.3346 101.084 97.5483C101.084 98.7621 102.068 99.7456 103.282 99.7456H123.865C125.602 102.969 127.164 106.98 127.071 113.317C122.724 107.279 115.687 103.396 107.7 103.396C101.285 103.396 95.2667 105.912 90.7518 110.481C86.7454 114.535 84.3393 119.796 83.8441 125.479L51.15 125.471ZM107.974 141.504C101.105 141.504 95.3115 136.554 93.91 129.874H122.037C120.635 136.554 114.842 141.504 107.974 141.504ZM124.533 125.479H91.4145H88.2577C89.3364 115.544 97.6438 107.791 107.7 107.791C116.528 107.791 123.942 113.612 126.398 121.762C126.406 121.788 126.414 121.813 126.422 121.839C126.77 123.008 127.015 124.225 127.148 125.479H124.533ZM145.605 79.9535C145.605 81.9226 144.006 83.5242 142.039 83.5242H113.036V72.1772H145.605V79.9535ZM145.605 67.7827H113.036V63.1096H145.605V67.7827ZM145.605 58.715H113.036V54.2467C113.036 52.2776 114.636 50.676 116.602 50.676H142.039C144.006 50.676 145.605 52.2779 145.605 54.2467V58.715Z" fill="black"/>
</g>
<defs>
<clipPath id="clip0_12_2847">
<rect width="150" height="150" fill="white"/>
</clipPath>
</defs>
</svg>
