<svg width="1719" height="1074" viewBox="0 0 1719 1074" fill="none" xmlns="http://www.w3.org/2000/svg">
<path fill-rule="evenodd" clip-rule="evenodd" d="M13.8474 0L52.4163 38.569L90.8388 0.146489L91.3445 0.652213L91.9967 0L130.566 38.569L168.988 0.146489L169.265 0.423731L169.689 0L208.258 38.5689L246.68 0.146489L246.729 0.195345L246.925 0L285.494 38.569L323.916 0.146489L323.965 0.195238L324.16 0L362.729 38.569L401.152 0.146489L401.2 0.195102L401.395 0L439.964 38.5689L478.387 0.146489L478.435 0.195331L478.631 0L517.2 38.5689L555.622 0.146489L555.671 0.195346L555.866 0L594.435 38.5689L632.857 0.146489L632.906 0.195163L633.101 0L671.67 38.5689L710.093 0.146489L710.142 0.195468L710.337 0L748.906 38.5689L787.328 0.146489L787.377 0.195224L787.572 0L826.141 38.5689L864.564 0.146489L864.612 0.195163L864.807 0L903.376 38.5689L941.799 0.146489L941.848 0.195468L942.043 0L980.612 38.5689L1019.03 0.146489L1019.08 0.195223L1019.28 0L1057.85 38.5689L1096.27 0.146489L1096.32 0.195375L1096.51 0L1135.08 38.5689L1173.51 0.146489L1173.55 0.195375L1173.75 0L1212.32 38.5689L1250.74 0.146489L1250.79 0.195192L1250.98 0L1289.55 38.5689L1327.98 0.146489L1328.02 0.195375L1328.22 0L1366.79 38.5689L1405.21 0.146489L1405.26 0.195558L1405.46 0L1444.02 38.5689L1482.45 0.146489L1482.5 0.195192L1482.69 0L1521.26 38.5689L1559.68 0.146489L1559.73 0.195192L1559.93 0L1598.49 38.5689L1636.92 0.146489L1636.97 0.195192L1637.16 0L1675.73 38.5689L1714.15 0.146489L1719 4.99386L1675.7 48.297L1670.85 43.4496L1670.88 43.4163L1637.11 9.64607L1598.46 48.297L1593.61 43.4496L1593.65 43.4162L1559.88 9.64607L1521.23 48.297L1516.38 43.4496L1516.41 43.4163L1482.64 9.64607L1443.99 48.297L1439.14 43.4496L1439.18 43.4162L1405.41 9.64571L1366.76 48.297L1361.91 43.4496L1361.94 43.4162L1328.17 9.64589L1289.52 48.297L1284.67 43.4496L1284.71 43.4162L1250.94 9.64607L1212.28 48.297L1207.44 43.4496L1207.47 43.4163L1173.7 9.64589L1135.05 48.297L1130.2 43.4496L1130.24 43.4162L1096.46 9.64583L1057.81 48.297L1052.97 43.4496L1053 43.4162L1019.23 9.64601L980.579 48.297L975.731 43.4496L975.765 43.4163L941.994 9.64577L903.343 48.297L898.496 43.4496L898.529 43.4163L864.759 9.64604L826.108 48.297L821.26 43.4496L821.294 43.4162L787.524 9.64598L748.873 48.297L744.025 43.4496L744.059 43.4162L710.288 9.64577L671.637 48.297L666.789 43.4496L666.823 43.4163L633.053 9.64604L594.402 48.297L589.554 43.4496L589.588 43.4162L555.817 9.64586L517.166 48.297L512.319 43.4496L512.352 43.4162L478.582 9.64588L439.931 48.297L435.083 43.4496L435.117 43.4163L401.347 9.64612L362.696 48.297L357.848 43.4496L357.882 43.4163L324.111 9.64598L285.46 48.297L280.613 43.4496L280.646 43.4163L246.876 9.64588L208.225 48.297L203.377 43.4496L203.411 43.4162L169.412 9.41749L130.532 48.297L125.685 43.4496L125.718 43.4163L91.491 9.18901L52.383 48.297L47.5357 43.4496L47.569 43.4163L9 4.84737L13.8474 0Z" fill="#459E79"/>
<path fill-rule="evenodd" clip-rule="evenodd" d="M4.84737 68.297L43.4163 106.866L81.8388 68.4435L82.3445 68.9492L82.9967 68.297L121.566 106.866L159.988 68.4435L160.265 68.7207L160.689 68.297L199.258 106.866L237.68 68.4435L237.729 68.4923L237.925 68.297L276.494 106.866L314.916 68.4435L314.965 68.4922L315.16 68.297L353.729 106.866L392.152 68.4435L392.2 68.4921L392.395 68.297L430.964 106.866L469.387 68.4435L469.435 68.4923L469.631 68.297L508.2 106.866L546.622 68.4435L546.671 68.4923L546.866 68.297L585.435 106.866L623.857 68.4435L623.906 68.4922L624.101 68.297L662.67 106.866L701.093 68.4435L701.142 68.4925L701.337 68.297L739.906 106.866L778.328 68.4435L778.377 68.4922L778.572 68.297L817.141 106.866L855.564 68.4435L855.612 68.4922L855.807 68.297L894.376 106.866L932.799 68.4435L932.848 68.4925L933.043 68.297L971.612 106.866L1010.03 68.4435L1010.08 68.4922L1010.28 68.297L1048.85 106.866L1087.27 68.4435L1087.32 68.4924L1087.51 68.297L1126.08 106.866L1164.51 68.4435L1164.55 68.4924L1164.75 68.297L1203.32 106.866L1241.74 68.4435L1241.79 68.4922L1241.98 68.297L1280.55 106.866L1318.98 68.4435L1319.02 68.4924L1319.22 68.297L1357.79 106.866L1396.21 68.4435L1396.26 68.4926L1396.46 68.297L1435.02 106.866L1473.45 68.4435L1473.5 68.4922L1473.69 68.297L1512.26 106.866L1550.68 68.4435L1550.73 68.4922L1550.93 68.297L1589.49 106.866L1627.92 68.4435L1627.97 68.4922L1628.16 68.297L1666.73 106.866L1705.15 68.4435L1710 73.2909L1666.7 116.594L1661.85 111.747L1661.88 111.713L1628.11 77.9431L1589.46 116.594L1584.61 111.747L1584.65 111.713L1550.88 77.9431L1512.23 116.594L1507.38 111.747L1507.41 111.713L1473.64 77.9431L1434.99 116.594L1430.14 111.747L1430.18 111.713L1396.41 77.9427L1357.76 116.594L1352.91 111.747L1352.94 111.713L1319.17 77.9429L1280.52 116.594L1275.67 111.747L1275.71 111.713L1241.94 77.9431L1203.28 116.594L1198.44 111.747L1198.47 111.713L1164.7 77.9429L1126.05 116.594L1121.2 111.747L1121.24 111.713L1087.46 77.9428L1048.81 116.594L1043.97 111.747L1044 111.713L1010.23 77.943L971.579 116.594L966.731 111.747L966.765 111.713L932.994 77.9428L894.343 116.594L889.496 111.747L889.529 111.713L855.759 77.943L817.108 116.594L812.26 111.747L812.294 111.713L778.524 77.943L739.873 116.594L735.025 111.747L735.059 111.713L701.288 77.9428L662.637 116.594L657.789 111.747L657.823 111.713L624.053 77.943L585.402 116.594L580.554 111.747L580.588 111.713L546.817 77.9429L508.166 116.594L503.319 111.747L503.352 111.713L469.582 77.9429L430.931 116.594L426.083 111.747L426.117 111.713L392.347 77.9431L353.696 116.594L348.848 111.747L348.882 111.713L315.111 77.943L276.46 116.594L271.613 111.747L271.646 111.713L237.876 77.9429L199.225 116.594L194.377 111.747L194.411 111.713L160.412 77.7145L121.532 116.594L116.685 111.747L116.718 111.713L82.491 77.486L43.383 116.594L38.5357 111.747L38.569 111.713L0 73.1444L4.84737 68.297Z" fill="#459E79"/>
<path fill-rule="evenodd" clip-rule="evenodd" d="M4.84737 136.594L43.4163 175.163L81.8388 136.74L82.3445 137.246L82.9967 136.594L121.566 175.163L159.988 136.74L160.265 137.018L160.689 136.594L199.258 175.163L237.68 136.74L237.729 136.789L237.925 136.594L276.494 175.163L314.916 136.74L314.965 136.789L315.16 136.594L353.729 175.163L392.152 136.74L392.2 136.789L392.395 136.594L430.964 175.163L469.387 136.74L469.435 136.789L469.631 136.594L508.2 175.163L546.622 136.74L546.671 136.789L546.866 136.594L585.435 175.163L623.857 136.74L623.906 136.789L624.101 136.594L662.67 175.163L701.093 136.74L701.142 136.789L701.337 136.594L739.906 175.163L778.328 136.74L778.377 136.789L778.572 136.594L817.141 175.163L855.564 136.74L855.612 136.789L855.807 136.594L894.376 175.163L932.799 136.74L932.848 136.789L933.043 136.594L971.612 175.163L1010.03 136.74L1010.08 136.789L1010.28 136.594L1048.85 175.163L1087.27 136.74L1087.32 136.789L1087.51 136.594L1126.08 175.163L1164.51 136.74L1164.55 136.789L1164.75 136.594L1203.32 175.163L1241.74 136.74L1241.79 136.789L1241.98 136.594L1280.55 175.163L1318.98 136.74L1319.02 136.789L1319.22 136.594L1357.79 175.163L1396.21 136.74L1396.26 136.79L1396.46 136.594L1435.02 175.163L1473.45 136.74L1473.5 136.789L1473.69 136.594L1512.26 175.163L1550.68 136.74L1550.73 136.789L1550.93 136.594L1589.49 175.163L1627.92 136.74L1627.97 136.789L1628.16 136.594L1666.73 175.163L1705.15 136.74L1710 141.588L1666.7 184.891L1661.85 180.044L1661.88 180.01L1628.11 146.24L1589.46 184.891L1584.61 180.044L1584.65 180.01L1550.88 146.24L1512.23 184.891L1507.38 180.044L1507.41 180.01L1473.64 146.24L1434.99 184.891L1430.14 180.044L1430.18 180.01L1396.41 146.24L1357.76 184.891L1352.91 180.044L1352.94 180.01L1319.17 146.24L1280.52 184.891L1275.67 180.044L1275.71 180.01L1241.94 146.24L1203.28 184.891L1198.44 180.044L1198.47 180.01L1164.7 146.24L1126.05 184.891L1121.2 180.044L1121.24 180.01L1087.46 146.24L1048.81 184.891L1043.97 180.044L1044 180.01L1010.23 146.24L971.579 184.891L966.731 180.044L966.765 180.01L932.994 146.24L894.343 184.891L889.496 180.044L889.529 180.01L855.759 146.24L817.108 184.891L812.26 180.044L812.294 180.01L778.524 146.24L739.873 184.891L735.025 180.044L735.059 180.01L701.288 146.24L662.637 184.891L657.789 180.044L657.823 180.01L624.053 146.24L585.402 184.891L580.554 180.044L580.588 180.01L546.817 146.24L508.166 184.891L503.319 180.044L503.352 180.01L469.582 146.24L430.931 184.891L426.083 180.044L426.117 180.01L392.347 146.24L353.696 184.891L348.848 180.044L348.882 180.01L315.111 146.24L276.46 184.891L271.613 180.044L271.646 180.01L237.876 146.24L199.225 184.891L194.377 180.044L194.411 180.01L160.412 146.011L121.532 184.891L116.685 180.044L116.718 180.01L82.491 145.783L43.383 184.891L38.5357 180.044L38.569 180.01L0 141.441L4.84737 136.594Z" fill="#459E79"/>
<path fill-rule="evenodd" clip-rule="evenodd" d="M4.84737 204.891L43.4163 243.46L81.8388 205.037L82.3445 205.543L82.9967 204.891L121.566 243.46L159.988 205.037L160.265 205.315L160.689 204.891L199.258 243.46L237.68 205.037L237.729 205.086L237.925 204.891L276.494 243.46L314.916 205.037L314.965 205.086L315.16 204.891L353.729 243.46L392.152 205.037L392.2 205.086L392.395 204.891L430.964 243.46L469.387 205.037L469.435 205.086L469.631 204.891L508.2 243.46L546.622 205.037L546.671 205.086L546.866 204.891L585.435 243.46L623.857 205.037L623.906 205.086L624.101 204.891L662.67 243.46L701.093 205.037L701.142 205.086L701.337 204.891L739.906 243.46L778.328 205.037L778.377 205.086L778.572 204.891L817.141 243.46L855.564 205.037L855.612 205.086L855.807 204.891L894.376 243.46L932.799 205.037L932.848 205.086L933.043 204.891L971.612 243.46L1010.03 205.037L1010.08 205.086L1010.28 204.891L1048.85 243.46L1087.27 205.037L1087.32 205.086L1087.51 204.891L1126.08 243.46L1164.51 205.037L1164.55 205.086L1164.75 204.891L1203.32 243.46L1241.74 205.037L1241.79 205.086L1241.98 204.891L1280.55 243.46L1318.98 205.037L1319.02 205.086L1319.22 204.891L1357.79 243.46L1396.21 205.037L1396.26 205.087L1396.46 204.891L1435.02 243.46L1473.45 205.037L1473.5 205.086L1473.69 204.891L1512.26 243.46L1550.68 205.037L1550.73 205.086L1550.93 204.891L1589.49 243.46L1627.92 205.037L1627.97 205.086L1628.16 204.891L1666.73 243.46L1705.15 205.037L1710 209.885L1666.7 253.188L1661.85 248.341L1661.88 248.307L1628.11 214.537L1589.46 253.188L1584.61 248.341L1584.65 248.307L1550.88 214.537L1512.23 253.188L1507.38 248.341L1507.41 248.307L1473.64 214.537L1434.99 253.188L1430.14 248.341L1430.18 248.307L1396.41 214.537L1357.76 253.188L1352.91 248.341L1352.94 248.307L1319.17 214.537L1280.52 253.188L1275.67 248.341L1275.71 248.307L1241.94 214.537L1203.28 253.188L1198.44 248.341L1198.47 248.307L1164.7 214.537L1126.05 253.188L1121.2 248.341L1121.24 248.307L1087.46 214.537L1048.81 253.188L1043.97 248.341L1044 248.307L1010.23 214.537L971.579 253.188L966.731 248.341L966.765 248.307L932.994 214.537L894.343 253.188L889.496 248.341L889.529 248.307L855.759 214.537L817.108 253.188L812.26 248.341L812.294 248.307L778.524 214.537L739.873 253.188L735.025 248.341L735.059 248.307L701.288 214.537L662.637 253.188L657.789 248.341L657.823 248.307L624.053 214.537L585.402 253.188L580.554 248.341L580.588 248.307L546.817 214.537L508.166 253.188L503.319 248.341L503.352 248.307L469.582 214.537L430.931 253.188L426.083 248.341L426.117 248.307L392.347 214.537L353.696 253.188L348.848 248.341L348.882 248.307L315.111 214.537L276.46 253.188L271.613 248.341L271.646 248.307L237.876 214.537L199.225 253.188L194.377 248.341L194.411 248.307L160.412 214.308L121.532 253.188L116.685 248.341L116.718 248.307L82.491 214.08L43.383 253.188L38.5357 248.341L38.569 248.307L0 209.738L4.84737 204.891Z" fill="#459E79"/>
<path fill-rule="evenodd" clip-rule="evenodd" d="M4.84737 273.188L43.4163 311.757L81.8388 273.334L82.3445 273.84L82.9967 273.188L121.566 311.757L159.988 273.334L160.265 273.612L160.689 273.188L199.258 311.757L237.68 273.334L237.729 273.383L237.925 273.188L276.494 311.757L314.916 273.334L314.965 273.383L315.16 273.188L353.729 311.757L392.152 273.334L392.2 273.383L392.395 273.188L430.964 311.757L469.387 273.334L469.435 273.383L469.631 273.188L508.2 311.757L546.622 273.334L546.671 273.383L546.866 273.188L585.435 311.757L623.857 273.334L623.906 273.383L624.101 273.188L662.67 311.757L701.093 273.334L701.142 273.383L701.337 273.188L739.906 311.757L778.328 273.334L778.377 273.383L778.572 273.188L817.141 311.757L855.564 273.334L855.612 273.383L855.807 273.188L894.376 311.757L932.799 273.334L932.848 273.383L933.043 273.188L971.612 311.757L1010.03 273.334L1010.08 273.383L1010.28 273.188L1048.85 311.757L1087.27 273.334L1087.32 273.383L1087.51 273.188L1126.08 311.757L1164.51 273.334L1164.55 273.383L1164.75 273.188L1203.32 311.757L1241.74 273.334L1241.79 273.383L1241.98 273.188L1280.55 311.757L1318.98 273.334L1319.02 273.383L1319.22 273.188L1357.79 311.757L1396.21 273.334L1396.26 273.384L1396.46 273.188L1435.02 311.757L1473.45 273.334L1473.5 273.383L1473.69 273.188L1512.26 311.757L1550.68 273.334L1550.73 273.383L1550.93 273.188L1589.49 311.757L1627.92 273.334L1627.97 273.383L1628.16 273.188L1666.73 311.757L1705.15 273.334L1710 278.182L1666.7 321.485L1661.85 316.638L1661.88 316.604L1628.11 282.834L1589.46 321.485L1584.61 316.638L1584.65 316.604L1550.88 282.834L1512.23 321.485L1507.38 316.638L1507.41 316.604L1473.64 282.834L1434.99 321.485L1430.14 316.638L1430.18 316.604L1396.41 282.834L1357.76 321.485L1352.91 316.638L1352.94 316.604L1319.17 282.834L1280.52 321.485L1275.67 316.638L1275.71 316.604L1241.94 282.834L1203.28 321.485L1198.44 316.638L1198.47 316.604L1164.7 282.834L1126.05 321.485L1121.2 316.638L1121.24 316.604L1087.46 282.834L1048.81 321.485L1043.97 316.638L1044 316.604L1010.23 282.834L971.579 321.485L966.731 316.638L966.765 316.604L932.994 282.834L894.343 321.485L889.496 316.638L889.529 316.604L855.759 282.834L817.108 321.485L812.26 316.638L812.294 316.604L778.524 282.834L739.873 321.485L735.025 316.638L735.059 316.604L701.288 282.834L662.637 321.485L657.789 316.638L657.823 316.604L624.053 282.834L585.402 321.485L580.554 316.638L580.588 316.604L546.817 282.834L508.166 321.485L503.319 316.638L503.352 316.604L469.582 282.834L430.931 321.485L426.083 316.638L426.117 316.604L392.347 282.834L353.696 321.485L348.848 316.638L348.882 316.604L315.111 282.834L276.46 321.485L271.613 316.638L271.646 316.604L237.876 282.834L199.225 321.485L194.377 316.638L194.411 316.604L160.412 282.605L121.532 321.485L116.685 316.638L116.718 316.604L82.491 282.377L43.383 321.485L38.5357 316.638L38.569 316.604L0 278.035L4.84737 273.188Z" fill="#459E79"/>
<path fill-rule="evenodd" clip-rule="evenodd" d="M4.84737 341.485L43.4163 380.054L81.8388 341.631L82.3445 342.137L82.9967 341.485L121.566 380.054L159.988 341.631L160.265 341.909L160.689 341.485L199.258 380.054L237.68 341.631L237.729 341.68L237.925 341.485L276.494 380.054L314.916 341.631L314.965 341.68L315.16 341.485L353.729 380.054L392.152 341.631L392.2 341.68L392.395 341.485L430.964 380.054L469.387 341.631L469.435 341.68L469.631 341.485L508.2 380.054L546.622 341.631L546.671 341.68L546.866 341.485L585.435 380.054L623.857 341.631L623.906 341.68L624.101 341.485L662.67 380.054L701.093 341.631L701.142 341.68L701.337 341.485L739.906 380.054L778.328 341.631L778.377 341.68L778.572 341.485L817.141 380.054L855.564 341.631L855.612 341.68L855.807 341.485L894.376 380.054L932.799 341.631L932.848 341.68L933.043 341.485L971.612 380.054L1010.03 341.631L1010.08 341.68L1010.28 341.485L1048.85 380.054L1087.27 341.631L1087.32 341.68L1087.51 341.485L1126.08 380.054L1164.51 341.631L1164.55 341.68L1164.75 341.485L1203.32 380.054L1241.74 341.631L1241.79 341.68L1241.98 341.485L1280.55 380.054L1318.98 341.631L1319.02 341.68L1319.22 341.485L1357.79 380.054L1396.21 341.631L1396.26 341.681L1396.46 341.485L1435.02 380.054L1473.45 341.631L1473.5 341.68L1473.69 341.485L1512.26 380.054L1550.68 341.631L1550.73 341.68L1550.93 341.485L1589.49 380.054L1627.92 341.631L1627.97 341.68L1628.16 341.485L1666.73 380.054L1705.15 341.631L1710 346.479L1666.7 389.782L1661.85 384.935L1661.88 384.901L1628.11 351.131L1589.46 389.782L1584.61 384.935L1584.65 384.901L1550.88 351.131L1512.23 389.782L1507.38 384.935L1507.41 384.901L1473.64 351.131L1434.99 389.782L1430.14 384.935L1430.18 384.901L1396.41 351.131L1357.76 389.782L1352.91 384.935L1352.94 384.901L1319.17 351.131L1280.52 389.782L1275.67 384.935L1275.71 384.901L1241.94 351.131L1203.28 389.782L1198.44 384.935L1198.47 384.901L1164.7 351.131L1126.05 389.782L1121.2 384.935L1121.24 384.901L1087.46 351.131L1048.81 389.782L1043.97 384.935L1044 384.901L1010.23 351.131L971.579 389.782L966.731 384.935L966.765 384.901L932.994 351.131L894.343 389.782L889.496 384.935L889.529 384.901L855.759 351.131L817.108 389.782L812.26 384.935L812.294 384.901L778.524 351.131L739.873 389.782L735.025 384.935L735.059 384.901L701.288 351.131L662.637 389.782L657.789 384.935L657.823 384.901L624.053 351.131L585.402 389.782L580.554 384.935L580.588 384.901L546.817 351.131L508.166 389.782L503.319 384.935L503.352 384.901L469.582 351.131L430.931 389.782L426.083 384.935L426.117 384.901L392.347 351.131L353.696 389.782L348.848 384.935L348.882 384.901L315.111 351.131L276.46 389.782L271.613 384.935L271.646 384.901L237.876 351.131L199.225 389.782L194.377 384.935L194.411 384.901L160.412 350.902L121.532 389.782L116.685 384.935L116.718 384.901L82.491 350.674L43.383 389.782L38.5357 384.935L38.569 384.901L0 346.332L4.84737 341.485Z" fill="#459E79"/>
<path fill-rule="evenodd" clip-rule="evenodd" d="M4.84737 409.782L43.4163 448.351L81.8388 409.928L82.3445 410.434L82.9967 409.782L121.566 448.351L159.988 409.928L160.265 410.206L160.689 409.782L199.258 448.351L237.68 409.928L237.729 409.977L237.925 409.782L276.494 448.351L314.916 409.928L314.965 409.977L315.16 409.782L353.729 448.351L392.152 409.928L392.2 409.977L392.395 409.782L430.964 448.351L469.387 409.928L469.435 409.977L469.631 409.782L508.2 448.351L546.622 409.928L546.671 409.977L546.866 409.782L585.435 448.351L623.857 409.928L623.906 409.977L624.101 409.782L662.67 448.351L701.093 409.928L701.142 409.977L701.337 409.782L739.906 448.351L778.328 409.928L778.377 409.977L778.572 409.782L817.141 448.351L855.564 409.928L855.612 409.977L855.807 409.782L894.376 448.351L932.799 409.928L932.848 409.977L933.043 409.782L971.612 448.351L1010.03 409.928L1010.08 409.977L1010.28 409.782L1048.85 448.351L1087.27 409.928L1087.32 409.977L1087.51 409.782L1126.08 448.351L1164.51 409.928L1164.55 409.977L1164.75 409.782L1203.32 448.351L1241.74 409.928L1241.79 409.977L1241.98 409.782L1280.55 448.351L1318.98 409.928L1319.02 409.977L1319.22 409.782L1357.79 448.351L1396.21 409.928L1396.26 409.978L1396.46 409.782L1435.02 448.351L1473.45 409.928L1473.5 409.977L1473.69 409.782L1512.26 448.351L1550.68 409.928L1550.73 409.977L1550.93 409.782L1589.49 448.351L1627.92 409.928L1627.97 409.977L1628.16 409.782L1666.73 448.351L1705.15 409.928L1710 414.776L1666.7 458.079L1661.85 453.232L1661.88 453.198L1628.11 419.428L1589.46 458.079L1584.61 453.232L1584.65 453.198L1550.88 419.428L1512.23 458.079L1507.38 453.232L1507.41 453.198L1473.64 419.428L1434.99 458.079L1430.14 453.232L1430.18 453.198L1396.41 419.428L1357.76 458.079L1352.91 453.232L1352.94 453.198L1319.17 419.428L1280.52 458.079L1275.67 453.232L1275.71 453.198L1241.94 419.428L1203.28 458.079L1198.44 453.232L1198.47 453.198L1164.7 419.428L1126.05 458.079L1121.2 453.232L1121.24 453.198L1087.46 419.428L1048.81 458.079L1043.97 453.232L1044 453.198L1010.23 419.428L971.579 458.079L966.731 453.232L966.765 453.198L932.994 419.428L894.343 458.079L889.496 453.232L889.529 453.198L855.759 419.428L817.108 458.079L812.26 453.232L812.294 453.198L778.524 419.428L739.873 458.079L735.025 453.232L735.059 453.198L701.288 419.428L662.637 458.079L657.789 453.232L657.823 453.198L624.053 419.428L585.402 458.079L580.554 453.232L580.588 453.198L546.817 419.428L508.166 458.079L503.319 453.232L503.352 453.198L469.582 419.428L430.931 458.079L426.083 453.232L426.117 453.198L392.347 419.428L353.696 458.079L348.848 453.232L348.882 453.198L315.111 419.428L276.46 458.079L271.613 453.232L271.646 453.198L237.876 419.428L199.225 458.079L194.377 453.232L194.411 453.198L160.412 419.199L121.532 458.079L116.685 453.232L116.718 453.198L82.491 418.971L43.383 458.079L38.5357 453.232L38.569 453.198L0 414.629L4.84737 409.782Z" fill="#459E79"/>
<path fill-rule="evenodd" clip-rule="evenodd" d="M4.84737 478.079L43.4163 516.648L81.8388 478.225L82.3445 478.731L82.9967 478.079L121.566 516.648L159.988 478.225L160.265 478.503L160.689 478.079L199.258 516.648L237.68 478.225L237.729 478.274L237.925 478.079L276.494 516.648L314.916 478.225L314.965 478.274L315.16 478.079L353.729 516.648L392.152 478.225L392.2 478.274L392.395 478.079L430.964 516.648L469.387 478.225L469.435 478.274L469.631 478.079L508.2 516.648L546.622 478.225L546.671 478.274L546.866 478.079L585.435 516.648L623.857 478.225L623.906 478.274L624.101 478.079L662.67 516.648L701.093 478.225L701.142 478.274L701.337 478.079L739.906 516.648L778.328 478.225L778.377 478.274L778.572 478.079L817.141 516.648L855.564 478.225L855.612 478.274L855.807 478.079L894.376 516.648L932.799 478.225L932.848 478.274L933.043 478.079L971.612 516.648L1010.03 478.225L1010.08 478.274L1010.28 478.079L1048.85 516.648L1087.27 478.225L1087.32 478.274L1087.51 478.079L1126.08 516.648L1164.51 478.225L1164.55 478.274L1164.75 478.079L1203.32 516.648L1241.74 478.225L1241.79 478.274L1241.98 478.079L1280.55 516.648L1318.98 478.225L1319.02 478.274L1319.22 478.079L1357.79 516.648L1396.21 478.225L1396.26 478.275L1396.46 478.079L1435.02 516.648L1473.45 478.225L1473.5 478.274L1473.69 478.079L1512.26 516.648L1550.68 478.225L1550.73 478.274L1550.93 478.079L1589.49 516.648L1627.92 478.225L1627.97 478.274L1628.16 478.079L1666.73 516.648L1705.15 478.225L1710 483.073L1666.7 526.376L1661.85 521.529L1661.88 521.495L1628.11 487.725L1589.46 526.376L1584.61 521.529L1584.65 521.495L1550.88 487.725L1512.23 526.376L1507.38 521.529L1507.41 521.495L1473.64 487.725L1434.99 526.376L1430.14 521.529L1430.18 521.495L1396.41 487.725L1357.76 526.376L1352.91 521.529L1352.94 521.495L1319.17 487.725L1280.52 526.376L1275.67 521.529L1275.71 521.495L1241.94 487.725L1203.28 526.376L1198.44 521.529L1198.47 521.495L1164.7 487.725L1126.05 526.376L1121.2 521.529L1121.24 521.495L1087.46 487.725L1048.81 526.376L1043.97 521.529L1044 521.495L1010.23 487.725L971.579 526.376L966.731 521.529L966.765 521.495L932.994 487.725L894.343 526.376L889.496 521.529L889.529 521.495L855.759 487.725L817.108 526.376L812.26 521.529L812.294 521.495L778.524 487.725L739.873 526.376L735.025 521.529L735.059 521.495L701.288 487.725L662.637 526.376L657.789 521.529L657.823 521.495L624.053 487.725L585.402 526.376L580.554 521.529L580.588 521.495L546.817 487.725L508.166 526.376L503.319 521.529L503.352 521.495L469.582 487.725L430.931 526.376L426.083 521.529L426.117 521.495L392.347 487.725L353.696 526.376L348.848 521.529L348.882 521.495L315.111 487.725L276.46 526.376L271.613 521.529L271.646 521.495L237.876 487.725L199.225 526.376L194.377 521.529L194.411 521.495L160.412 487.496L121.532 526.376L116.685 521.529L116.718 521.495L82.491 487.268L43.383 526.376L38.5357 521.529L38.569 521.495L0 482.926L4.84737 478.079Z" fill="#459E79"/>
<path fill-rule="evenodd" clip-rule="evenodd" d="M4.84737 546.376L43.4163 584.945L81.8388 546.522L82.3445 547.028L82.9967 546.376L121.566 584.945L159.988 546.522L160.265 546.8L160.689 546.376L199.258 584.945L237.68 546.522L237.729 546.571L237.925 546.376L276.494 584.945L314.916 546.522L314.965 546.571L315.16 546.376L353.729 584.945L392.152 546.522L392.2 546.571L392.395 546.376L430.964 584.945L469.387 546.522L469.435 546.571L469.631 546.376L508.2 584.945L546.622 546.522L546.671 546.571L546.866 546.376L585.435 584.945L623.857 546.522L623.906 546.571L624.101 546.376L662.67 584.945L701.093 546.522L701.142 546.571L701.337 546.376L739.906 584.945L778.328 546.522L778.377 546.571L778.572 546.376L817.141 584.945L855.564 546.522L855.612 546.571L855.807 546.376L894.376 584.945L932.799 546.522L932.848 546.571L933.043 546.376L971.612 584.945L1010.03 546.522L1010.08 546.571L1010.28 546.376L1048.85 584.945L1087.27 546.522L1087.32 546.571L1087.51 546.376L1126.08 584.945L1164.51 546.522L1164.55 546.571L1164.75 546.376L1203.32 584.945L1241.74 546.522L1241.79 546.571L1241.98 546.376L1280.55 584.945L1318.98 546.522L1319.02 546.571L1319.22 546.376L1357.79 584.945L1396.21 546.522L1396.26 546.572L1396.46 546.376L1435.02 584.945L1473.45 546.522L1473.5 546.571L1473.69 546.376L1512.26 584.945L1550.68 546.522L1550.73 546.571L1550.93 546.376L1589.49 584.945L1627.92 546.522L1627.97 546.571L1628.16 546.376L1666.73 584.945L1705.15 546.522L1710 551.37L1666.7 594.673L1661.85 589.826L1661.88 589.792L1628.11 556.022L1589.46 594.673L1584.61 589.826L1584.65 589.792L1550.88 556.022L1512.23 594.673L1507.38 589.826L1507.41 589.792L1473.64 556.022L1434.99 594.673L1430.14 589.826L1430.18 589.792L1396.41 556.022L1357.76 594.673L1352.91 589.826L1352.94 589.792L1319.17 556.022L1280.52 594.673L1275.67 589.826L1275.71 589.792L1241.94 556.022L1203.28 594.673L1198.44 589.826L1198.47 589.792L1164.7 556.022L1126.05 594.673L1121.2 589.826L1121.24 589.792L1087.46 556.022L1048.81 594.673L1043.97 589.826L1044 589.792L1010.23 556.022L971.579 594.673L966.731 589.826L966.765 589.792L932.994 556.022L894.343 594.673L889.496 589.826L889.529 589.792L855.759 556.022L817.108 594.673L812.26 589.826L812.294 589.792L778.524 556.022L739.873 594.673L735.025 589.826L735.059 589.792L701.288 556.022L662.637 594.673L657.789 589.826L657.823 589.792L624.053 556.022L585.402 594.673L580.554 589.826L580.588 589.792L546.817 556.022L508.166 594.673L503.319 589.826L503.352 589.792L469.582 556.022L430.931 594.673L426.083 589.826L426.117 589.792L392.347 556.022L353.696 594.673L348.848 589.826L348.882 589.792L315.111 556.022L276.46 594.673L271.613 589.826L271.646 589.792L237.876 556.022L199.225 594.673L194.377 589.826L194.411 589.792L160.412 555.793L121.532 594.673L116.685 589.826L116.718 589.792L82.491 555.565L43.383 594.673L38.5357 589.826L38.569 589.792L0 551.223L4.84737 546.376Z" fill="#459E79"/>
<path fill-rule="evenodd" clip-rule="evenodd" d="M4.84737 614.673L43.4163 653.242L81.8388 614.819L82.3445 615.325L82.9967 614.673L121.566 653.242L159.988 614.819L160.265 615.097L160.689 614.673L199.258 653.242L237.68 614.819L237.729 614.868L237.925 614.673L276.494 653.242L314.916 614.819L314.965 614.868L315.16 614.673L353.729 653.242L392.152 614.819L392.2 614.868L392.395 614.673L430.964 653.242L469.387 614.819L469.435 614.868L469.631 614.673L508.2 653.242L546.622 614.819L546.671 614.868L546.866 614.673L585.435 653.242L623.857 614.819L623.906 614.868L624.101 614.673L662.67 653.242L701.093 614.819L701.142 614.868L701.337 614.673L739.906 653.242L778.328 614.819L778.377 614.868L778.572 614.673L817.141 653.242L855.564 614.819L855.612 614.868L855.807 614.673L894.376 653.242L932.799 614.819L932.848 614.868L933.043 614.673L971.612 653.242L1010.03 614.819L1010.08 614.868L1010.28 614.673L1048.85 653.242L1087.27 614.819L1087.32 614.868L1087.51 614.673L1126.08 653.242L1164.51 614.819L1164.55 614.868L1164.75 614.673L1203.32 653.242L1241.74 614.819L1241.79 614.868L1241.98 614.673L1280.55 653.242L1318.98 614.819L1319.02 614.868L1319.22 614.673L1357.79 653.242L1396.21 614.819L1396.26 614.869L1396.46 614.673L1435.02 653.242L1473.45 614.819L1473.5 614.868L1473.69 614.673L1512.26 653.242L1550.68 614.819L1550.73 614.868L1550.93 614.673L1589.49 653.242L1627.92 614.819L1627.97 614.868L1628.16 614.673L1666.73 653.242L1705.15 614.819L1710 619.667L1666.7 662.97L1661.85 658.123L1661.88 658.089L1628.11 624.319L1589.46 662.97L1584.61 658.123L1584.65 658.089L1550.88 624.319L1512.23 662.97L1507.38 658.123L1507.41 658.089L1473.64 624.319L1434.99 662.97L1430.14 658.123L1430.18 658.089L1396.41 624.319L1357.76 662.97L1352.91 658.123L1352.94 658.089L1319.17 624.319L1280.52 662.97L1275.67 658.123L1275.71 658.089L1241.94 624.319L1203.28 662.97L1198.44 658.123L1198.47 658.089L1164.7 624.319L1126.05 662.97L1121.2 658.123L1121.24 658.089L1087.46 624.319L1048.81 662.97L1043.97 658.123L1044 658.089L1010.23 624.319L971.579 662.97L966.731 658.123L966.765 658.089L932.994 624.319L894.343 662.97L889.496 658.123L889.529 658.089L855.759 624.319L817.108 662.97L812.26 658.123L812.294 658.089L778.524 624.319L739.873 662.97L735.025 658.123L735.059 658.089L701.288 624.319L662.637 662.97L657.789 658.123L657.823 658.089L624.053 624.319L585.402 662.97L580.554 658.123L580.588 658.089L546.817 624.319L508.166 662.97L503.319 658.123L503.352 658.089L469.582 624.319L430.931 662.97L426.083 658.123L426.117 658.089L392.347 624.319L353.696 662.97L348.848 658.123L348.882 658.089L315.111 624.319L276.46 662.97L271.613 658.123L271.646 658.089L237.876 624.319L199.225 662.97L194.377 658.123L194.411 658.089L160.412 624.09L121.532 662.97L116.685 658.123L116.718 658.089L82.491 623.862L43.383 662.97L38.5357 658.123L38.569 658.089L0 619.52L4.84737 614.673Z" fill="#459E79"/>
<path fill-rule="evenodd" clip-rule="evenodd" d="M4.84737 682.97L43.4163 721.539L81.8388 683.116L82.3445 683.622L82.9967 682.97L121.566 721.539L159.988 683.116L160.265 683.394L160.689 682.97L199.258 721.539L237.68 683.116L237.729 683.165L237.925 682.97L276.494 721.539L314.916 683.116L314.965 683.165L315.16 682.97L353.729 721.539L392.152 683.116L392.2 683.165L392.395 682.97L430.964 721.539L469.387 683.116L469.435 683.165L469.631 682.97L508.2 721.539L546.622 683.116L546.671 683.165L546.866 682.97L585.435 721.539L623.857 683.116L623.906 683.165L624.101 682.97L662.67 721.539L701.093 683.116L701.142 683.165L701.337 682.97L739.906 721.539L778.328 683.116L778.377 683.165L778.572 682.97L817.141 721.539L855.564 683.116L855.612 683.165L855.807 682.97L894.376 721.539L932.799 683.116L932.848 683.165L933.043 682.97L971.612 721.539L1010.03 683.116L1010.08 683.165L1010.28 682.97L1048.85 721.539L1087.27 683.116L1087.32 683.165L1087.51 682.97L1126.08 721.539L1164.51 683.116L1164.55 683.165L1164.75 682.97L1203.32 721.539L1241.74 683.116L1241.79 683.165L1241.98 682.97L1280.55 721.539L1318.98 683.116L1319.02 683.165L1319.22 682.97L1357.79 721.539L1396.21 683.116L1396.26 683.166L1396.46 682.97L1435.02 721.539L1473.45 683.116L1473.5 683.165L1473.69 682.97L1512.26 721.539L1550.68 683.116L1550.73 683.165L1550.93 682.97L1589.49 721.539L1627.92 683.116L1627.97 683.165L1628.16 682.97L1666.73 721.539L1705.15 683.116L1710 687.964L1666.7 731.267L1661.85 726.42L1661.88 726.386L1628.11 692.616L1589.46 731.267L1584.61 726.42L1584.65 726.386L1550.88 692.616L1512.23 731.267L1507.38 726.42L1507.41 726.386L1473.64 692.616L1434.99 731.267L1430.14 726.42L1430.18 726.386L1396.41 692.616L1357.76 731.267L1352.91 726.42L1352.94 726.386L1319.17 692.616L1280.52 731.267L1275.67 726.42L1275.71 726.386L1241.94 692.616L1203.28 731.267L1198.44 726.42L1198.47 726.386L1164.7 692.616L1126.05 731.267L1121.2 726.42L1121.24 726.386L1087.46 692.616L1048.81 731.267L1043.97 726.42L1044 726.386L1010.23 692.616L971.579 731.267L966.731 726.42L966.765 726.386L932.994 692.616L894.343 731.267L889.496 726.42L889.529 726.386L855.759 692.616L817.108 731.267L812.26 726.42L812.294 726.386L778.524 692.616L739.873 731.267L735.025 726.42L735.059 726.386L701.288 692.616L662.637 731.267L657.789 726.42L657.823 726.386L624.053 692.616L585.402 731.267L580.554 726.42L580.588 726.386L546.817 692.616L508.166 731.267L503.319 726.42L503.352 726.386L469.582 692.616L430.931 731.267L426.083 726.42L426.117 726.386L392.347 692.616L353.696 731.267L348.848 726.42L348.882 726.386L315.111 692.616L276.46 731.267L271.613 726.42L271.646 726.386L237.876 692.616L199.225 731.267L194.377 726.42L194.411 726.386L160.412 692.387L121.532 731.267L116.685 726.42L116.718 726.386L82.491 692.159L43.383 731.267L38.5357 726.42L38.569 726.386L0 687.817L4.84737 682.97Z" fill="#459E79"/>
<path fill-rule="evenodd" clip-rule="evenodd" d="M4.84737 751.267L43.4163 789.836L81.8388 751.413L82.3445 751.919L82.9967 751.267L121.566 789.836L159.988 751.413L160.265 751.691L160.689 751.267L199.258 789.836L237.68 751.413L237.729 751.462L237.925 751.267L276.494 789.836L314.916 751.413L314.965 751.462L315.16 751.267L353.729 789.836L392.152 751.413L392.2 751.462L392.395 751.267L430.964 789.836L469.387 751.413L469.435 751.462L469.631 751.267L508.2 789.836L546.622 751.413L546.671 751.462L546.866 751.267L585.435 789.836L623.857 751.413L623.906 751.462L624.101 751.267L662.67 789.836L701.093 751.413L701.142 751.462L701.337 751.267L739.906 789.836L778.328 751.413L778.377 751.462L778.572 751.267L817.141 789.836L855.564 751.413L855.612 751.462L855.807 751.267L894.376 789.836L932.799 751.413L932.848 751.462L933.043 751.267L971.612 789.836L1010.03 751.413L1010.08 751.462L1010.28 751.267L1048.85 789.836L1087.27 751.413L1087.32 751.462L1087.51 751.267L1126.08 789.836L1164.51 751.413L1164.55 751.462L1164.75 751.267L1203.32 789.836L1241.74 751.413L1241.79 751.462L1241.98 751.267L1280.55 789.836L1318.98 751.413L1319.02 751.462L1319.22 751.267L1357.79 789.836L1396.21 751.413L1396.26 751.463L1396.46 751.267L1435.02 789.836L1473.45 751.413L1473.5 751.462L1473.69 751.267L1512.26 789.836L1550.68 751.413L1550.73 751.462L1550.93 751.267L1589.49 789.836L1627.92 751.413L1627.97 751.462L1628.16 751.267L1666.73 789.836L1705.15 751.413L1710 756.261L1666.7 799.564L1661.85 794.717L1661.88 794.683L1628.11 760.913L1589.46 799.564L1584.61 794.717L1584.65 794.683L1550.88 760.913L1512.23 799.564L1507.38 794.717L1507.41 794.683L1473.64 760.913L1434.99 799.564L1430.14 794.717L1430.18 794.683L1396.41 760.913L1357.76 799.564L1352.91 794.717L1352.94 794.683L1319.17 760.913L1280.52 799.564L1275.67 794.717L1275.71 794.683L1241.94 760.913L1203.28 799.564L1198.44 794.717L1198.47 794.683L1164.7 760.913L1126.05 799.564L1121.2 794.717L1121.24 794.683L1087.46 760.913L1048.81 799.564L1043.97 794.717L1044 794.683L1010.23 760.913L971.579 799.564L966.731 794.717L966.765 794.683L932.994 760.913L894.343 799.564L889.496 794.717L889.529 794.683L855.759 760.913L817.108 799.564L812.26 794.717L812.294 794.683L778.524 760.913L739.873 799.564L735.025 794.717L735.059 794.683L701.288 760.913L662.637 799.564L657.789 794.717L657.823 794.683L624.053 760.913L585.402 799.564L580.554 794.717L580.588 794.683L546.817 760.913L508.166 799.564L503.319 794.717L503.352 794.683L469.582 760.913L430.931 799.564L426.083 794.717L426.117 794.683L392.347 760.913L353.696 799.564L348.848 794.717L348.882 794.683L315.111 760.913L276.46 799.564L271.613 794.717L271.646 794.683L237.876 760.913L199.225 799.564L194.377 794.717L194.411 794.683L160.412 760.684L121.532 799.564L116.685 794.717L116.718 794.683L82.491 760.456L43.383 799.564L38.5357 794.717L38.569 794.683L0 756.114L4.84737 751.267Z" fill="#459E79"/>
<path fill-rule="evenodd" clip-rule="evenodd" d="M4.84737 819.564L43.4163 858.133L81.8388 819.71L82.3445 820.216L82.9967 819.564L121.566 858.133L159.988 819.71L160.265 819.988L160.689 819.564L199.258 858.133L237.68 819.71L237.729 819.759L237.925 819.564L276.494 858.133L314.916 819.71L314.965 819.759L315.16 819.564L353.729 858.133L392.152 819.71L392.2 819.759L392.395 819.564L430.964 858.133L469.387 819.71L469.435 819.759L469.631 819.564L508.2 858.133L546.622 819.71L546.671 819.759L546.866 819.564L585.435 858.133L623.857 819.71L623.906 819.759L624.101 819.564L662.67 858.133L701.093 819.71L701.142 819.759L701.337 819.564L739.906 858.133L778.328 819.71L778.377 819.759L778.572 819.564L817.141 858.133L855.564 819.71L855.612 819.759L855.807 819.564L894.376 858.133L932.799 819.71L932.848 819.759L933.043 819.564L971.612 858.133L1010.03 819.71L1010.08 819.759L1010.28 819.564L1048.85 858.133L1087.27 819.71L1087.32 819.759L1087.51 819.564L1126.08 858.133L1164.51 819.71L1164.55 819.759L1164.75 819.564L1203.32 858.133L1241.74 819.71L1241.79 819.759L1241.98 819.564L1280.55 858.133L1318.98 819.71L1319.02 819.759L1319.22 819.564L1357.79 858.133L1396.21 819.71L1396.26 819.76L1396.46 819.564L1435.02 858.133L1473.45 819.71L1473.5 819.759L1473.69 819.564L1512.26 858.133L1550.68 819.71L1550.73 819.759L1550.93 819.564L1589.49 858.133L1627.92 819.71L1627.97 819.759L1628.16 819.564L1666.73 858.133L1705.15 819.71L1710 824.558L1666.7 867.861L1661.85 863.014L1661.88 862.98L1628.11 829.21L1589.46 867.861L1584.61 863.014L1584.65 862.98L1550.88 829.21L1512.23 867.861L1507.38 863.014L1507.41 862.98L1473.64 829.21L1434.99 867.861L1430.14 863.014L1430.18 862.98L1396.41 829.21L1357.76 867.861L1352.91 863.014L1352.94 862.98L1319.17 829.21L1280.52 867.861L1275.67 863.014L1275.71 862.98L1241.94 829.21L1203.28 867.861L1198.44 863.014L1198.47 862.98L1164.7 829.21L1126.05 867.861L1121.2 863.014L1121.24 862.98L1087.46 829.21L1048.81 867.861L1043.97 863.014L1044 862.98L1010.23 829.21L971.579 867.861L966.731 863.014L966.765 862.98L932.994 829.21L894.343 867.861L889.496 863.014L889.529 862.98L855.759 829.21L817.108 867.861L812.26 863.014L812.294 862.98L778.524 829.21L739.873 867.861L735.025 863.014L735.059 862.98L701.288 829.21L662.637 867.861L657.789 863.014L657.823 862.98L624.053 829.21L585.402 867.861L580.554 863.014L580.588 862.98L546.817 829.21L508.166 867.861L503.319 863.014L503.352 862.98L469.582 829.21L430.931 867.861L426.083 863.014L426.117 862.98L392.347 829.21L353.696 867.861L348.848 863.014L348.882 862.98L315.111 829.21L276.46 867.861L271.613 863.014L271.646 862.98L237.876 829.21L199.225 867.861L194.377 863.014L194.411 862.98L160.412 828.981L121.532 867.861L116.685 863.014L116.718 862.98L82.491 828.753L43.383 867.861L38.5357 863.014L38.569 862.98L0 824.411L4.84737 819.564Z" fill="#459E79"/>
<path fill-rule="evenodd" clip-rule="evenodd" d="M4.84737 888L43.4163 926.569L81.8388 888.146L82.3445 888.652L82.9967 888L121.566 926.569L159.988 888.146L160.265 888.424L160.689 888L199.258 926.569L237.68 888.146L237.729 888.195L237.925 888L276.494 926.569L314.916 888.146L314.965 888.195L315.16 888L353.729 926.569L392.152 888.146L392.2 888.195L392.395 888L430.964 926.569L469.387 888.146L469.435 888.195L469.631 888L508.2 926.569L546.622 888.146L546.671 888.195L546.866 888L585.435 926.569L623.857 888.146L623.906 888.195L624.101 888L662.67 926.569L701.093 888.146L701.142 888.195L701.337 888L739.906 926.569L778.328 888.146L778.377 888.195L778.572 888L817.141 926.569L855.564 888.146L855.612 888.195L855.807 888L894.376 926.569L932.799 888.146L932.848 888.195L933.043 888L971.612 926.569L1010.03 888.146L1010.08 888.195L1010.28 888L1048.85 926.569L1087.27 888.146L1087.32 888.195L1087.51 888L1126.08 926.569L1164.51 888.146L1164.55 888.195L1164.75 888L1203.32 926.569L1241.74 888.146L1241.79 888.195L1241.98 888L1280.55 926.569L1318.98 888.146L1319.02 888.195L1319.22 888L1357.79 926.569L1396.21 888.146L1396.26 888.196L1396.46 888L1435.02 926.569L1473.45 888.146L1473.5 888.195L1473.69 888L1512.26 926.569L1550.68 888.146L1550.73 888.195L1550.93 888L1589.49 926.569L1627.92 888.146L1627.97 888.195L1628.16 888L1666.73 926.569L1705.15 888.146L1710 892.994L1666.7 936.297L1661.85 931.45L1661.88 931.416L1628.11 897.646L1589.46 936.297L1584.61 931.45L1584.65 931.416L1550.88 897.646L1512.23 936.297L1507.38 931.45L1507.41 931.416L1473.64 897.646L1434.99 936.297L1430.14 931.45L1430.18 931.416L1396.41 897.646L1357.76 936.297L1352.91 931.45L1352.94 931.416L1319.17 897.646L1280.52 936.297L1275.67 931.45L1275.71 931.416L1241.94 897.646L1203.28 936.297L1198.44 931.45L1198.47 931.416L1164.7 897.646L1126.05 936.297L1121.2 931.45L1121.24 931.416L1087.46 897.646L1048.81 936.297L1043.97 931.45L1044 931.416L1010.23 897.646L971.579 936.297L966.731 931.45L966.765 931.416L932.994 897.646L894.343 936.297L889.496 931.45L889.529 931.416L855.759 897.646L817.108 936.297L812.26 931.45L812.294 931.416L778.524 897.646L739.873 936.297L735.025 931.45L735.059 931.416L701.288 897.646L662.637 936.297L657.789 931.45L657.823 931.416L624.053 897.646L585.402 936.297L580.554 931.45L580.588 931.416L546.817 897.646L508.166 936.297L503.319 931.45L503.352 931.416L469.582 897.646L430.931 936.297L426.083 931.45L426.117 931.416L392.347 897.646L353.696 936.297L348.848 931.45L348.882 931.416L315.111 897.646L276.46 936.297L271.613 931.45L271.646 931.416L237.876 897.646L199.225 936.297L194.377 931.45L194.411 931.416L160.412 897.417L121.532 936.297L116.685 931.45L116.718 931.416L82.491 897.189L43.383 936.297L38.5357 931.45L38.569 931.416L0 892.847L4.84737 888Z" fill="#459E79"/>
<path fill-rule="evenodd" clip-rule="evenodd" d="M4.84737 956.436L43.4163 995.005L81.8388 956.583L82.3445 957.088L82.9967 956.436L121.566 995.005L159.988 956.583L160.265 956.86L160.689 956.436L199.258 995.005L237.68 956.583L237.729 956.631L237.925 956.436L276.494 995.005L314.916 956.583L314.965 956.631L315.16 956.436L353.729 995.005L392.152 956.583L392.2 956.631L392.395 956.436L430.964 995.005L469.387 956.583L469.435 956.631L469.631 956.436L508.2 995.005L546.622 956.583L546.671 956.631L546.866 956.436L585.435 995.005L623.857 956.583L623.906 956.631L624.101 956.436L662.67 995.005L701.093 956.583L701.142 956.632L701.337 956.436L739.906 995.005L778.328 956.583L778.377 956.631L778.572 956.436L817.141 995.005L855.564 956.583L855.612 956.631L855.807 956.436L894.376 995.005L932.799 956.583L932.848 956.632L933.043 956.436L971.612 995.005L1010.03 956.583L1010.08 956.631L1010.28 956.436L1048.85 995.005L1087.27 956.583L1087.32 956.631L1087.51 956.436L1126.08 995.005L1164.51 956.583L1164.55 956.631L1164.75 956.436L1203.32 995.005L1241.74 956.583L1241.79 956.631L1241.98 956.436L1280.55 995.005L1318.98 956.583L1319.02 956.631L1319.22 956.436L1357.79 995.005L1396.21 956.583L1396.26 956.632L1396.46 956.436L1435.02 995.005L1473.45 956.583L1473.5 956.631L1473.69 956.436L1512.26 995.005L1550.68 956.583L1550.73 956.631L1550.93 956.436L1589.49 995.005L1627.92 956.583L1627.97 956.631L1628.16 956.436L1666.73 995.005L1705.15 956.583L1710 961.43L1666.7 1004.73L1661.85 999.886L1661.88 999.852L1628.11 966.082L1589.46 1004.73L1584.61 999.886L1584.65 999.852L1550.88 966.082L1512.23 1004.73L1507.38 999.886L1507.41 999.852L1473.64 966.082L1434.99 1004.73L1430.14 999.886L1430.18 999.852L1396.41 966.082L1357.76 1004.73L1352.91 999.886L1352.94 999.852L1319.17 966.082L1280.52 1004.73L1275.67 999.886L1275.71 999.852L1241.94 966.082L1203.28 1004.73L1198.44 999.886L1198.47 999.852L1164.7 966.082L1126.05 1004.73L1121.2 999.886L1121.24 999.852L1087.46 966.082L1048.81 1004.73L1043.97 999.886L1044 999.852L1010.23 966.082L971.579 1004.73L966.731 999.886L966.765 999.852L932.994 966.082L894.343 1004.73L889.496 999.886L889.529 999.852L855.759 966.082L817.108 1004.73L812.26 999.886L812.294 999.852L778.524 966.082L739.873 1004.73L735.025 999.886L735.059 999.852L701.288 966.082L662.637 1004.73L657.789 999.886L657.823 999.852L624.053 966.082L585.402 1004.73L580.554 999.886L580.588 999.852L546.817 966.082L508.166 1004.73L503.319 999.886L503.352 999.852L469.582 966.082L430.931 1004.73L426.083 999.886L426.117 999.852L392.347 966.082L353.696 1004.73L348.848 999.886L348.882 999.852L315.111 966.082L276.46 1004.73L271.613 999.886L271.646 999.852L237.876 966.082L199.225 1004.73L194.377 999.886L194.411 999.852L160.412 965.854L121.532 1004.73L116.685 999.886L116.718 999.852L82.491 965.625L43.383 1004.73L38.5357 999.886L38.569 999.852L0 961.283L4.84737 956.436Z" fill="#459E79"/>
<path fill-rule="evenodd" clip-rule="evenodd" d="M4.84737 1024.87L43.4163 1063.44L81.8388 1025.02L82.3445 1025.52L82.9967 1024.87L121.566 1063.44L159.988 1025.02L160.265 1025.3L160.689 1024.87L199.258 1063.44L237.68 1025.02L237.729 1025.07L237.925 1024.87L276.494 1063.44L314.916 1025.02L314.965 1025.07L315.16 1024.87L353.729 1063.44L392.152 1025.02L392.2 1025.07L392.395 1024.87L430.964 1063.44L469.387 1025.02L469.435 1025.07L469.631 1024.87L508.2 1063.44L546.622 1025.02L546.671 1025.07L546.866 1024.87L585.435 1063.44L623.857 1025.02L623.906 1025.07L624.101 1024.87L662.67 1063.44L701.093 1025.02L701.142 1025.07L701.337 1024.87L739.906 1063.44L778.328 1025.02L778.377 1025.07L778.572 1024.87L817.141 1063.44L855.564 1025.02L855.612 1025.07L855.807 1024.87L894.376 1063.44L932.799 1025.02L932.848 1025.07L933.043 1024.87L971.612 1063.44L1010.03 1025.02L1010.08 1025.07L1010.28 1024.87L1048.85 1063.44L1087.27 1025.02L1087.32 1025.07L1087.51 1024.87L1126.08 1063.44L1164.51 1025.02L1164.55 1025.07L1164.75 1024.87L1203.32 1063.44L1241.74 1025.02L1241.79 1025.07L1241.98 1024.87L1280.55 1063.44L1318.98 1025.02L1319.02 1025.07L1319.22 1024.87L1357.79 1063.44L1396.21 1025.02L1396.26 1025.07L1396.46 1024.87L1435.02 1063.44L1473.45 1025.02L1473.5 1025.07L1473.69 1024.87L1512.26 1063.44L1550.68 1025.02L1550.73 1025.07L1550.93 1024.87L1589.49 1063.44L1627.92 1025.02L1627.97 1025.07L1628.16 1024.87L1666.73 1063.44L1705.15 1025.02L1710 1029.87L1666.7 1073.17L1661.85 1068.32L1661.88 1068.29L1628.11 1034.52L1589.46 1073.17L1584.61 1068.32L1584.65 1068.29L1550.88 1034.52L1512.23 1073.17L1507.38 1068.32L1507.41 1068.29L1473.64 1034.52L1434.99 1073.17L1430.14 1068.32L1430.18 1068.29L1396.41 1034.52L1357.76 1073.17L1352.91 1068.32L1352.94 1068.29L1319.17 1034.52L1280.52 1073.17L1275.67 1068.32L1275.71 1068.29L1241.94 1034.52L1203.28 1073.17L1198.44 1068.32L1198.47 1068.29L1164.7 1034.52L1126.05 1073.17L1121.2 1068.32L1121.24 1068.29L1087.46 1034.52L1048.81 1073.17L1043.97 1068.32L1044 1068.29L1010.23 1034.52L971.579 1073.17L966.731 1068.32L966.765 1068.29L932.994 1034.52L894.343 1073.17L889.496 1068.32L889.529 1068.29L855.759 1034.52L817.108 1073.17L812.26 1068.32L812.294 1068.29L778.524 1034.52L739.873 1073.17L735.025 1068.32L735.059 1068.29L701.288 1034.52L662.637 1073.17L657.789 1068.32L657.823 1068.29L624.053 1034.52L585.402 1073.17L580.554 1068.32L580.588 1068.29L546.817 1034.52L508.166 1073.17L503.319 1068.32L503.352 1068.29L469.582 1034.52L430.931 1073.17L426.083 1068.32L426.117 1068.29L392.347 1034.52L353.696 1073.17L348.848 1068.32L348.882 1068.29L315.111 1034.52L276.46 1073.17L271.613 1068.32L271.646 1068.29L237.876 1034.52L199.225 1073.17L194.377 1068.32L194.411 1068.29L160.412 1034.29L121.532 1073.17L116.685 1068.32L116.718 1068.29L82.491 1034.06L43.383 1073.17L38.5357 1068.32L38.569 1068.29L0 1029.72L4.84737 1024.87Z" fill="#459E79"/>
</svg>
